<svg version="1.1" id="Layer_1" xmlns="http://www.w3.org/2000/svg" xmlns:xlink="http://www.w3.org/1999/xlink" x="0px" y="0px"
	 width="100%" viewBox="0 0 5000 5000" enable-background="new 0 0 5000 5000" xml:space="preserve">
<path fill="#2D328D" opacity="1.000000" stroke="none" 
	d="
M3144.000000,5004.000000 
	C2096.000000,5004.000000 1050.000000,5004.000000 4.000000,5004.000000 
	C4.000000,3337.333252 4.000000,1670.666626 4.000000,4.000001 
	C1670.666626,4.000000 3337.333252,4.000000 5004.000000,4.000000 
	C5004.000000,1670.666626 5004.000000,3337.333252 5004.000000,5004.000000 
	C4384.666504,5004.000000 3765.333252,5004.000000 3144.000000,5004.000000 
M3443.528564,2493.520996 
	C3480.690186,2458.088623 3516.814209,2421.653320 3550.490967,2382.852783 
	C3593.432861,2333.377686 3632.157471,2280.924072 3662.602539,2222.725098 
	C3689.626709,2171.065918 3711.034424,2117.427246 3718.004883,2058.973633 
	C3725.385742,1997.076294 3716.640625,1938.093506 3685.849121,1883.134399 
	C3669.130615,1853.293823 3648.592285,1826.364502 3624.774414,1801.863159 
	C3583.960449,1759.878174 3536.520020,1726.952148 3485.216797,1699.213623 
	C3412.532227,1659.914429 3334.746582,1634.852051 3254.548096,1616.673828 
	C3190.182129,1602.084351 3125.012207,1592.054932 3059.582031,1583.637939 
	C3045.759521,1581.859985 3031.972168,1579.808716 3019.013672,1578.001221 
	C3017.471680,1576.013062 3016.416260,1575.075317 3015.888428,1573.900269 
	C3013.159180,1567.828369 3010.505127,1561.720947 3007.932861,1555.580444 
	C2976.491699,1480.526733 2941.259766,1407.348267 2899.335205,1337.530762 
	C2861.446533,1274.434326 2818.127441,1215.505615 2764.793945,1164.381226 
	C2726.007568,1127.201538 2683.271729,1095.778442 2633.738037,1074.221191 
	C2567.601318,1045.438599 2500.170654,1040.446655 2430.921875,1062.162964 
	C2386.647705,1076.047241 2345.822998,1096.640137 2307.649902,1122.753174 
	C2256.677734,1157.621704 2212.351074,1199.766846 2172.591309,1246.826294 
	C2128.979004,1298.444946 2091.888916,1354.617310 2059.939941,1413.986450 
	C2031.224976,1467.345703 2004.603760,1521.831909 1977.066528,1575.824707 
	C1973.772583,1582.283081 1970.526245,1588.765503 1967.837646,1594.088867 
	C1926.458008,1598.738770 1886.705322,1602.757568 1847.077026,1607.760864 
	C1782.908203,1615.862671 1719.415894,1627.754883 1657.039795,1644.993774 
	C1593.239136,1662.626709 1531.812500,1686.216553 1474.595459,1719.972168 
	C1436.458862,1742.471191 1401.783447,1769.274414 1372.243774,1802.412476 
	C1334.589233,1844.653687 1309.102051,1892.932373 1300.312378,1949.299072 
	C1292.925781,1996.668579 1296.288086,2043.653931 1306.074341,2090.334961 
	C1319.603882,2154.871582 1345.173706,2214.691162 1377.557007,2271.798828 
	C1412.257324,2332.992188 1455.402832,2387.957764 1502.198853,2440.204590 
	C1546.267456,2489.406006 1593.570801,2535.401855 1641.592163,2580.684326 
	C1647.854370,2586.589355 1654.030396,2592.585449 1660.127930,2598.425781 
	C1659.613281,2602.664795 1659.549805,2606.001221 1658.774658,2609.163330 
	C1637.164185,2697.301514 1621.256714,2786.378174 1614.362671,2876.957764 
	C1608.826050,2949.702393 1610.083008,3022.152100 1624.439819,3093.935791 
	C1633.636108,3139.916748 1648.490967,3183.940186 1671.527222,3225.023193 
	C1708.652710,3291.233398 1762.375488,3337.194336 1834.904053,3361.044189 
	C1877.686768,3375.113037 1921.514648,3382.271240 1966.355713,3383.783447 
	C2023.994141,3385.727539 2080.732178,3378.721924 2136.811035,3365.768555 
	C2203.940430,3350.262939 2268.013672,3326.042725 2330.671387,3297.757324 
	C2389.011963,3271.421143 2445.382812,3241.229492 2501.676514,3210.871826 
	C2508.024414,3207.448730 2513.814697,3202.557129 2522.031494,3202.202393 
	C2527.498779,3205.473389 2533.233643,3208.837402 2538.904053,3212.307373 
	C2600.915527,3250.256348 2664.859375,3284.595947 2731.176025,3314.404297 
	C2804.964844,3347.571777 2880.939209,3373.831787 2961.327881,3385.871582 
	C3013.791504,3393.728760 3066.108154,3394.805176 3118.405762,3384.273438 
	C3191.235840,3369.607422 3251.101318,3334.239746 3296.331055,3274.709473 
	C3321.113770,3242.091797 3340.538818,3206.571289 3355.563477,3168.593262 
	C3383.065674,3099.074707 3395.807617,3026.449707 3399.348145,2952.143799 
	C3402.912354,2877.326660 3397.107178,2802.914551 3385.806641,2728.992920 
	C3378.360596,2680.286133 3369.218994,2631.838867 3360.930176,2583.259521 
	C3360.157227,2578.729980 3360.062012,2574.084717 3359.661133,2569.594238 
	C3387.238770,2544.618896 3414.366699,2520.050537 3443.528564,2493.520996 
M1123.633057,3890.778564 
	C1130.629395,3912.231201 1137.625610,3933.683594 1144.678345,3955.309570 
	C1176.335815,3955.309570 1206.867798,3955.309570 1238.577881,3955.309570 
	C1243.644043,3940.037598 1248.688110,3925.008789 1253.618286,3909.942383 
	C1288.180542,3804.316162 1322.734253,3698.687500 1357.209106,3593.032715 
	C1358.552246,3588.916260 1359.065430,3584.528809 1359.990356,3580.149170 
	C1340.446899,3577.777832 1294.735840,3577.923096 1278.304932,3580.375000 
	C1276.265625,3586.114258 1273.936890,3592.271973 1271.879395,3598.519287 
	C1246.692261,3674.997314 1221.568481,3751.496338 1196.321289,3827.954590 
	C1194.978149,3832.021729 1192.678589,3835.773193 1189.829712,3841.762695 
	C1187.079224,3833.714111 1185.074707,3828.108887 1183.242432,3822.447754 
	C1158.242554,3745.206055 1133.291748,3667.948730 1108.216919,3590.731445 
	C1106.841553,3586.495850 1104.482300,3582.579834 1102.560669,3578.471924 
	C1088.875610,3578.471924 1076.225586,3578.405273 1063.576660,3578.489990 
	C1050.387329,3578.578613 1037.162842,3578.073242 1023.294250,3578.978760 
	C1020.593933,3586.854736 1018.208740,3593.691162 1015.903320,3600.554443 
	C990.688538,3675.615723 965.496521,3750.684814 940.252686,3825.736572 
	C938.895325,3829.771729 938.887146,3834.857666 932.511841,3836.463867 
	C929.702820,3828.221924 926.799500,3820.116699 924.170105,3811.923584 
	C901.191406,3740.323486 878.345703,3668.680664 855.166687,3597.145752 
	C853.199951,3591.076172 853.093140,3583.800293 845.886047,3578.473145 
	C824.393311,3578.473145 801.802734,3578.431396 779.212585,3578.504150 
	C773.900269,3578.521240 768.578186,3578.800049 763.287476,3579.265137 
	C762.331238,3579.349365 761.506653,3580.931152 760.611389,3581.811768 
	C768.458252,3612.835938 877.057312,3940.762207 884.039124,3954.515137 
	C903.383362,3956.758789 959.838623,3956.498535 976.513611,3953.883789 
	C985.618591,3926.786865 994.930481,3899.084229 1004.235107,3871.379150 
	C1013.556458,3843.625244 1022.616028,3815.780518 1032.258667,3788.138672 
	C1041.850464,3760.643555 1049.600952,3732.465576 1062.226562,3702.484863 
	C1083.083618,3766.383057 1102.891846,3827.067627 1123.633057,3890.778564 
M3796.956787,3654.001953 
	C3796.785400,3676.651611 3796.639160,3699.301270 3796.370117,3721.949463 
	C3796.356445,3723.095703 3795.288086,3724.229248 3794.480469,3725.823486 
	C3792.957275,3726.250000 3791.106201,3727.218750 3789.254395,3727.220703 
	C3737.260742,3727.277588 3685.267334,3727.254639 3633.273926,3727.137207 
	C3631.416748,3727.132812 3629.562500,3726.029785 3627.505371,3725.374512 
	C3624.483154,3718.953125 3625.616211,3712.203857 3625.598389,3705.659668 
	C3625.495605,3668.329102 3625.571045,3630.997803 3625.511719,3593.666748 
	C3625.504639,3589.187744 3625.045410,3584.709229 3624.812256,3580.530273 
	C3605.413330,3577.695068 3556.713135,3577.834229 3539.251709,3580.754395 
	C3539.016357,3586.969238 3538.556885,3593.486816 3538.554199,3600.004395 
	C3538.510254,3711.330811 3538.486084,3822.657227 3538.610352,3933.983643 
	C3538.618164,3941.010254 3536.872314,3948.480957 3541.118164,3955.285645 
	C3568.847412,3955.285645 3596.071045,3955.285645 3622.945801,3955.285645 
	C3626.933350,3948.435059 3625.460449,3941.618164 3625.482910,3935.071045 
	C3625.617188,3895.740723 3625.492432,3856.409180 3625.629883,3817.078857 
	C3625.647461,3812.006348 3623.990723,3806.281494 3629.650879,3801.899902 
	C3631.016357,3801.637939 3632.929688,3800.952637 3634.843750,3800.950195 
	C3685.507080,3800.884277 3736.170166,3800.851562 3786.833252,3800.973633 
	C3789.874756,3800.980957 3792.913086,3802.318604 3796.957031,3803.274170 
	C3796.957031,3810.648438 3796.957275,3817.262451 3796.957275,3823.876709 
	C3796.958008,3862.541016 3796.908691,3901.205322 3797.019287,3939.869141 
	C3797.033936,3945.003418 3795.606201,3950.616455 3801.313477,3955.955566 
	C3814.116699,3955.955566 3828.086182,3956.247314 3842.037842,3955.872803 
	C3855.767822,3955.504395 3869.699707,3957.711670 3883.500000,3954.138184 
	C3883.882324,3950.621826 3884.412842,3948.026367 3884.410889,3945.431641 
	C3884.325195,3824.785156 3884.194580,3704.138428 3884.037842,3583.491943 
	C3884.037109,3582.867188 3883.663574,3582.208008 3883.348389,3581.628418 
	C3883.056641,3581.091309 3882.608154,3580.639160 3882.229248,3580.148193 
	C3880.986328,3579.712158 3879.745117,3578.902100 3878.500000,3578.895264 
	C3853.840576,3578.759033 3829.180664,3578.645996 3804.521729,3578.767090 
	C3802.190918,3578.778564 3799.867920,3580.381104 3796.957031,3581.461914 
	C3796.957031,3604.738281 3796.957031,3627.372559 3796.956787,3654.001953 
M3350.001221,3885.587646 
	C3322.705322,3885.369629 3295.409668,3885.155273 3268.114014,3884.910889 
	C3267.493164,3884.905273 3266.786621,3884.690186 3266.280518,3884.340576 
	C3265.756104,3883.978271 3265.427002,3883.333252 3265.012451,3882.811768 
	C3262.177734,3858.490479 3262.808350,3813.160156 3266.503906,3798.727295 
	C3273.395508,3798.727295 3280.634521,3798.727051 3287.873535,3798.727051 
	C3332.504883,3798.726562 3377.135986,3798.772949 3421.767090,3798.661865 
	C3426.881348,3798.649170 3431.993408,3797.756348 3438.138184,3797.173828 
	C3439.493652,3774.980957 3438.872314,3753.966064 3438.618652,3733.073242 
	C3430.959229,3729.621094 3424.224121,3730.710938 3417.692627,3730.697998 
	C3372.395264,3730.608398 3327.097412,3730.713623 3281.800537,3730.568115 
	C3276.106445,3730.549805 3269.942383,3732.101074 3263.512695,3727.282715 
	C3263.512695,3705.124512 3263.412109,3682.562744 3263.614258,3660.003906 
	C3263.647217,3656.325928 3265.020264,3652.660400 3265.910645,3648.324219 
	C3288.228027,3648.324219 3309.496338,3648.323975 3330.764404,3648.323975 
	C3352.747070,3648.323975 3374.732910,3648.566162 3396.711182,3648.254150 
	C3417.786621,3647.955322 3438.949463,3649.696045 3461.329834,3647.013672 
	C3461.420410,3634.804443 3461.915039,3623.549805 3461.470703,3612.332520 
	C3461.034668,3601.323975 3463.742920,3589.964111 3459.169922,3578.794189 
	C3366.580811,3578.794189 3274.702637,3578.782959 3182.824219,3578.874756 
	C3180.991943,3578.876709 3179.160645,3580.081299 3177.284668,3580.740234 
	C3176.916016,3582.904053 3176.291748,3584.856201 3176.292969,3586.808105 
	C3176.366455,3708.035156 3176.490723,3829.262451 3176.625244,3950.489502 
	C3176.625977,3951.145508 3176.696533,3951.880859 3176.998535,3952.435547 
	C3177.300293,3952.990479 3177.934814,3953.364258 3180.661133,3955.891846 
	C3178.844727,3954.315186 3179.301514,3955.058350 3179.834717,3955.118164 
	C3183.131592,3955.488281 3186.446045,3955.941406 3189.754395,3955.937744 
	C3281.007324,3955.838867 3372.260498,3955.689453 3463.513428,3955.521240 
	C3464.120605,3955.520020 3464.781250,3955.229248 3465.319092,3954.908936 
	C3465.880371,3954.574707 3466.322754,3954.041016 3468.571777,3952.009521 
	C3467.628418,3931.424072 3470.399414,3909.218018 3467.094238,3887.647949 
	C3464.368896,3886.732910 3463.137451,3885.962402 3461.902100,3885.956787 
	C3425.935303,3885.787109 3389.968262,3885.693359 3350.001221,3885.587646 
M4011.439697,3593.323486 
	C4007.460938,3595.746582 4003.375244,3598.011719 3999.521240,3600.618896 
	C3974.557373,3617.504883 3958.529541,3640.663818 3953.803955,3670.430664 
	C3946.249756,3718.017822 3962.528076,3750.452148 3999.001953,3772.798828 
	C4006.320068,3777.282715 4014.269531,3781.113281 4022.403809,3783.809570 
	C4040.070068,3789.665527 4057.969238,3794.862793 4075.912598,3799.824707 
	C4092.577881,3804.433105 4109.504883,3808.094971 4126.162598,3812.726562 
	C4137.707520,3815.936523 4148.986328,3820.087891 4158.587891,3827.694092 
	C4175.218262,3840.867676 4176.069824,3861.728271 4160.449219,3875.970703 
	C4153.924805,3881.919678 4146.209961,3885.963135 4137.621582,3887.710449 
	C4128.521973,3889.561768 4119.287598,3891.359863 4110.046387,3891.801270 
	C4065.625488,3893.922852 4024.313232,3883.222900 3986.001221,3860.677979 
	C3982.291016,3858.494629 3978.150391,3857.042725 3973.406738,3854.886230 
	C3964.586670,3874.319092 3956.326660,3892.429688 3948.174805,3910.589355 
	C3947.127686,3912.921631 3946.642334,3915.506104 3945.745850,3918.473633 
	C3958.946533,3930.779053 3974.948975,3937.429199 3991.055176,3943.390625 
	C4039.423340,3961.293213 4089.361816,3966.585693 4140.412109,3959.434570 
	C4165.703613,3955.891846 4189.596191,3947.809814 4210.936523,3933.266846 
	C4240.424316,3913.171875 4256.658691,3885.194092 4258.437988,3849.677002 
	C4260.070801,3817.089844 4249.208008,3789.556396 4221.952148,3769.747070 
	C4211.634766,3762.248047 4200.681641,3756.019043 4188.578613,3752.050049 
	C4175.310547,3747.699707 4162.001953,3743.415283 4148.535156,3739.746094 
	C4128.001953,3734.150635 4107.198730,3729.525635 4086.746826,3723.662354 
	C4075.937988,3720.563721 4065.035645,3716.801270 4055.227783,3711.420410 
	C4038.190186,3702.072998 4034.149170,3680.843506 4045.272949,3664.891846 
	C4050.363037,3657.593262 4057.260742,3652.163574 4065.544434,3649.266846 
	C4073.018311,3646.653320 4080.875000,3644.677002 4088.723389,3643.668213 
	C4126.094727,3638.864502 4161.578613,3646.000244 4195.583496,3661.597412 
	C4201.568848,3664.343018 4207.518555,3667.167480 4213.376465,3669.905029 
	C4222.277832,3656.958008 4236.566406,3622.095703 4240.023438,3604.838379 
	C4230.382812,3596.974121 4218.603516,3592.462646 4206.835449,3588.162842 
	C4166.747070,3573.515381 4125.250488,3569.196777 4082.959229,3573.014404 
	C4058.983887,3575.178467 4035.659180,3580.623291 4011.439697,3593.323486 
M1811.885132,3833.232422 
	C1794.596924,3805.089355 1791.474487,3774.221436 1796.587891,3742.615967 
	C1802.192505,3707.974854 1820.390747,3681.083496 1850.854492,3662.740723 
	C1886.783936,3641.107422 1952.837524,3636.627441 1996.313599,3676.727051 
	C2000.690186,3680.763672 2005.120728,3684.741943 2010.539185,3689.668457 
	C2029.184692,3673.208496 2047.032227,3656.548584 2064.290771,3640.167725 
	C2063.482910,3637.560303 2063.382812,3636.147705 2062.675781,3635.177490 
	C2061.114014,3633.033936 2059.339111,3631.022705 2057.489258,3629.114502 
	C2037.185303,3608.166016 2013.133789,3593.110107 1985.540039,3583.749268 
	C1946.846802,3570.623047 1907.356445,3568.558105 1867.294434,3575.759033 
	C1760.293335,3594.993164 1686.100708,3690.135742 1710.293335,3809.257324 
	C1725.081421,3882.071533 1771.387207,3928.745117 1841.299683,3952.026855 
	C1878.053467,3964.266113 1915.937012,3965.344971 1953.837769,3958.665283 
	C1994.224854,3951.547363 2029.671875,3934.220215 2058.113037,3904.002686 
	C2060.685303,3901.270020 2062.442627,3897.770264 2064.436768,3894.834961 
	C2044.832031,3873.672363 2021.505127,3852.893311 2008.635498,3845.156250 
	C1982.161987,3874.078613 1949.516113,3889.665039 1909.606689,3887.770508 
	C1869.292236,3885.856689 1836.324707,3870.046875 1811.885132,3833.232422 
M2661.373779,3767.887695 
	C2653.891602,3796.183838 2653.160645,3824.706787 2661.236328,3852.808105 
	C2675.869141,3903.726074 2710.479980,3935.571289 2760.109131,3951.347900 
	C2796.441650,3962.897461 2833.638672,3963.441650 2870.650146,3954.748779 
	C2897.701416,3948.395996 2921.668701,3936.046631 2940.630127,3912.974854 
	C2926.135010,3897.044434 2912.484619,3880.985352 2896.506592,3866.192139 
	C2893.664795,3868.039062 2891.354736,3869.242920 2889.387939,3870.863525 
	C2865.039307,3890.930176 2836.557617,3895.437256 2806.538818,3891.396973 
	C2778.494873,3887.622559 2756.323242,3874.192627 2744.661865,3847.052734 
	C2743.296631,3843.875244 2743.811768,3839.890137 2743.319580,3834.903076 
	C2768.709229,3834.903076 2792.638184,3834.903320 2816.567383,3834.903320 
	C2839.886475,3834.903320 2863.205811,3834.939697 2886.524902,3834.892822 
	C2910.432861,3834.844727 2934.350098,3835.107910 2958.965820,3834.705566 
	C2962.265869,3817.591797 2962.179443,3801.636475 2959.783691,3785.908203 
	C2951.886475,3734.066162 2925.187744,3695.766113 2876.449707,3674.510986 
	C2847.710449,3661.977539 2817.556152,3658.441650 2786.483643,3663.180420 
	C2725.035400,3672.552002 2682.758789,3705.261230 2661.373779,3767.887695 
M1485.897583,3956.330566 
	C1505.601562,3960.825195 1525.616211,3961.062256 1545.572754,3959.588623 
	C1579.580811,3957.077881 1610.924072,3947.140869 1636.755859,3923.679443 
	C1640.038330,3920.698242 1642.596924,3916.919922 1645.316772,3913.716309 
	C1631.918701,3895.391113 1612.496582,3874.897217 1601.145020,3866.947021 
	C1599.502441,3867.939453 1597.623291,3868.755615 1596.129395,3870.024902 
	C1571.438110,3891.010254 1542.298706,3895.602051 1511.590210,3891.295410 
	C1483.561157,3887.364746 1461.600342,3873.557129 1450.148193,3846.316406 
	C1448.941406,3843.445801 1448.874634,3840.095703 1448.008667,3835.548828 
	C1455.679810,3835.310791 1462.205811,3834.937500 1468.732178,3834.932617 
	C1527.370972,3834.886963 1586.009644,3834.932373 1644.648438,3834.867920 
	C1651.131592,3834.860840 1657.614380,3834.333984 1664.735229,3834.020020 
	C1665.647949,3829.692139 1666.573608,3826.562256 1666.936890,3823.368408 
	C1668.841675,3806.626465 1667.311523,3789.998535 1663.541382,3773.728760 
	C1653.140137,3728.843018 1627.929932,3695.302490 1585.603027,3675.914307 
	C1550.430664,3659.802979 1513.582031,3657.137451 1476.197876,3665.942139 
	C1407.386230,3682.148438 1362.365845,3737.849609 1361.580322,3808.540039 
	C1360.814209,3877.479736 1398.258911,3923.191162 1448.458374,3944.640625 
	C1459.412354,3949.320801 1471.152954,3952.159668 1485.897583,3956.330566 
M2177.062500,3957.604736 
	C2192.853516,3961.183350 2208.888916,3960.931885 2224.772705,3959.354736 
	C2248.512207,3956.998047 2270.225098,3949.453369 2286.952637,3931.164062 
	C2288.365723,3929.618896 2290.800537,3929.008057 2294.025635,3927.288574 
	C2294.829834,3937.514160 2295.494629,3945.967285 2296.145996,3954.246582 
	C2315.807861,3956.917725 2357.428711,3956.586914 2372.530273,3953.599365 
	C2372.834717,3948.569824 2373.421387,3943.327393 2373.427734,3938.084717 
	C2373.485840,3889.481934 2373.491699,3840.878906 2373.381836,3792.276123 
	C2373.363770,3784.296387 2372.994629,3776.293213 2372.304443,3768.342773 
	C2367.769287,3716.073730 2338.080322,3681.032715 2287.112549,3667.684570 
	C2253.612061,3658.911133 2219.867432,3659.590332 2186.126221,3665.818359 
	C2162.438721,3670.190918 2139.673096,3677.501709 2118.889160,3690.025146 
	C2115.653076,3691.975098 2113.033936,3694.949219 2109.671143,3697.844482 
	C2119.320801,3716.787598 2127.913818,3735.344482 2139.085205,3753.845947 
	C2143.287598,3751.544189 2146.552490,3749.429443 2150.069336,3747.889893 
	C2161.003418,3743.103516 2171.732422,3737.547852 2183.089111,3734.090088 
	C2205.725830,3727.198242 2228.875000,3725.471924 2251.981445,3732.222656 
	C2276.221680,3739.304688 2288.134766,3756.416504 2287.688721,3783.971191 
	C2282.614014,3784.345703 2277.438721,3785.010742 2272.257812,3785.058838 
	C2254.282715,3785.226074 2236.291992,3784.744385 2218.333008,3785.321045 
	C2194.340576,3786.091553 2170.300537,3787.767090 2147.947998,3797.592041 
	C2118.907959,3810.355713 2100.873047,3831.736328 2098.515381,3864.402344 
	C2096.166992,3896.935791 2107.622803,3923.053467 2135.069092,3941.434570 
	C2146.816406,3949.302002 2159.762451,3954.404297 2177.062500,3957.604736 
M2535.490234,3800.127197 
	C2536.655762,3794.946045 2537.450928,3789.647705 2539.048584,3784.603516 
	C2547.088379,3759.218262 2565.129883,3745.028564 2590.687500,3740.213623 
	C2599.120361,3738.625000 2607.920654,3738.970947 2616.555908,3738.480469 
	C2620.336426,3738.265869 2624.124023,3738.173096 2628.853760,3737.988037 
	C2630.640869,3724.389160 2630.065674,3711.762451 2629.765137,3699.232422 
	C2629.469727,3686.915039 2632.072510,3674.263428 2627.288818,3661.721436 
	C2615.163330,3660.786133 2603.861084,3662.525146 2593.067139,3665.302979 
	C2581.563721,3668.263428 2570.546631,3673.250977 2559.491699,3677.779053 
	C2549.263428,3681.968994 2542.778564,3692.096436 2532.353271,3697.113037 
	C2528.042480,3686.473877 2533.038086,3675.801514 2527.047363,3665.448730 
	C2514.704346,3665.422363 2502.122803,3664.950195 2489.584961,3665.491943 
	C2476.587646,3666.053467 2463.215820,3662.874023 2449.456787,3668.398193 
	C2449.456787,3761.386719 2449.444580,3853.973877 2449.521484,3946.561035 
	C2449.523682,3949.088867 2450.488281,3951.615723 2450.948730,3953.871582 
	C2469.913086,3957.151611 2518.490479,3956.753662 2533.158447,3953.099121 
	C2533.383789,3946.808594 2533.807861,3940.230713 2533.822998,3933.651855 
	C2533.894775,3902.323730 2533.743164,3870.995361 2533.912109,3839.667969 
	C2533.976807,3827.684814 2534.683838,3815.705078 2535.490234,3800.127197 
z"/>
<path fill="#F3BF09" opacity="1.000000" stroke="none" 
	d="
M3442.511719,2494.501709 
	C3414.366699,2520.050537 3387.238770,2544.618896 3359.661133,2569.594238 
	C3360.062012,2574.084717 3360.157227,2578.729980 3360.930176,2583.259521 
	C3369.218994,2631.838867 3378.360596,2680.286133 3385.806641,2728.992920 
	C3397.107178,2802.914551 3402.912354,2877.326660 3399.348145,2952.143799 
	C3395.807617,3026.449707 3383.065674,3099.074707 3355.563477,3168.593262 
	C3340.538818,3206.571289 3321.113770,3242.091797 3296.331055,3274.709473 
	C3251.101318,3334.239746 3191.235840,3369.607422 3118.405762,3384.273438 
	C3066.108154,3394.805176 3013.791504,3393.728760 2961.327881,3385.871582 
	C2880.939209,3373.831787 2804.964844,3347.571777 2731.176025,3314.404297 
	C2664.859375,3284.595947 2600.915527,3250.256348 2538.904053,3212.307373 
	C2533.233643,3208.837402 2527.498779,3205.473389 2522.031494,3202.202393 
	C2513.814697,3202.557129 2508.024414,3207.448730 2501.676514,3210.871826 
	C2445.382812,3241.229492 2389.011963,3271.421143 2330.671387,3297.757324 
	C2268.013672,3326.042725 2203.940430,3350.262939 2136.811035,3365.768555 
	C2080.732178,3378.721924 2023.994141,3385.727539 1966.355713,3383.783447 
	C1921.514648,3382.271240 1877.686768,3375.113037 1834.904053,3361.044189 
	C1762.375488,3337.194336 1708.652710,3291.233398 1671.527222,3225.023193 
	C1648.490967,3183.940186 1633.636108,3139.916748 1624.439819,3093.935791 
	C1610.083008,3022.152100 1608.826050,2949.702393 1614.362671,2876.957764 
	C1621.256714,2786.378174 1637.164185,2697.301514 1658.774658,2609.163330 
	C1659.549805,2606.001221 1659.613281,2602.664795 1660.127930,2598.425781 
	C1654.030396,2592.585449 1647.854370,2586.589355 1641.592163,2580.684326 
	C1593.570801,2535.401855 1546.267456,2489.406006 1502.198853,2440.204590 
	C1455.402832,2387.957764 1412.257324,2332.992188 1377.557007,2271.798828 
	C1345.173706,2214.691162 1319.603882,2154.871582 1306.074341,2090.334961 
	C1296.288086,2043.653931 1292.925781,1996.668579 1300.312378,1949.299072 
	C1309.102051,1892.932373 1334.589233,1844.653687 1372.243774,1802.412476 
	C1401.783447,1769.274414 1436.458862,1742.471191 1474.595459,1719.972168 
	C1531.812500,1686.216553 1593.239136,1662.626709 1657.039795,1644.993774 
	C1719.415894,1627.754883 1782.908203,1615.862671 1847.077026,1607.760864 
	C1886.705322,1602.757568 1926.458008,1598.738770 1967.837646,1594.088867 
	C1970.526245,1588.765503 1973.772583,1582.283081 1977.066528,1575.824707 
	C2004.603760,1521.831909 2031.224976,1467.345703 2059.939941,1413.986450 
	C2091.888916,1354.617310 2128.979004,1298.444946 2172.591309,1246.826294 
	C2212.351074,1199.766846 2256.677734,1157.621704 2307.649902,1122.753174 
	C2345.822998,1096.640137 2386.647705,1076.047241 2430.921875,1062.162964 
	C2500.170654,1040.446655 2567.601318,1045.438599 2633.738037,1074.221191 
	C2683.271729,1095.778442 2726.007568,1127.201538 2764.793945,1164.381226 
	C2818.127441,1215.505615 2861.446533,1274.434326 2899.335205,1337.530762 
	C2941.259766,1407.348267 2976.491699,1480.526733 3007.932861,1555.580444 
	C3010.505127,1561.720947 3013.159180,1567.828369 3015.888428,1573.900269 
	C3016.416260,1575.075317 3017.471680,1576.013062 3019.013672,1578.001221 
	C3031.972168,1579.808716 3045.759521,1581.859985 3059.582031,1583.637939 
	C3125.012207,1592.054932 3190.182129,1602.084351 3254.548096,1616.673828 
	C3334.746582,1634.852051 3412.532227,1659.914429 3485.216797,1699.213623 
	C3536.520020,1726.952148 3583.960449,1759.878174 3624.774414,1801.863159 
	C3648.592285,1826.364502 3669.130615,1853.293823 3685.849121,1883.134399 
	C3716.640625,1938.093506 3725.385742,1997.076294 3718.004883,2058.973633 
	C3711.034424,2117.427246 3689.626709,2171.065918 3662.602539,2222.725098 
	C3632.157471,2280.924072 3593.432861,2333.377686 3550.490967,2382.852783 
	C3516.814209,2421.653320 3480.690186,2458.088623 3442.511719,2494.501709 
M1549.770264,1799.144775 
	C1550.863159,1798.388306 1551.617065,1797.378784 1551.867310,1795.729370 
	C1551.867310,1795.729370 1552.051636,1796.273682 1550.072632,1796.820923 
	C1549.468750,1797.953613 1548.864746,1799.086426 1546.781616,1799.999390 
	C1547.435547,1803.182251 1547.555542,1799.333862 1549.770264,1799.144775 
M2692.087891,1237.987305 
	C2690.893799,1237.166138 2689.699707,1236.345093 2687.123291,1233.191528 
	C2674.792969,1224.880615 2663.069580,1215.475342 2645.868652,1210.145874 
	C2580.581543,1179.102905 2514.735840,1179.248047 2448.428467,1206.669312 
	C2417.381104,1219.509033 2389.309326,1237.306030 2363.479004,1258.626587 
	C2311.471924,1301.553589 2268.770508,1352.456909 2237.198975,1411.984131 
	C2219.438965,1445.470215 2203.113037,1479.919800 2188.958740,1515.069824 
	C2164.837158,1574.972290 2142.948975,1635.773926 2120.096680,1696.187988 
	C2100.495605,1748.007446 2077.352051,1798.110596 2048.545654,1845.545654 
	C2020.357178,1891.963013 1986.321533,1933.631592 1945.155029,1972.555908 
	C1940.370361,1976.868530 1935.386230,1980.987671 1930.910522,1985.600098 
	C1929.369751,1987.188110 1929.097534,1990.007080 1926.871948,1991.817139 
	C1926.163574,1992.407959 1925.455200,1992.998779 1924.746704,1993.589600 
	C1925.137939,1993.803467 1925.779419,1994.283569 1925.880493,1994.188721 
	C1926.630127,1993.484253 1927.272339,1992.665527 1930.694336,1991.818970 
	C1938.029663,1986.797852 1945.364990,1981.776733 1955.151001,1975.586060 
	C2050.712646,1908.087036 2119.286865,1819.206055 2164.004150,1711.528320 
	C2184.410400,1662.391113 2203.552490,1612.763184 2220.359131,1562.258179 
	C2233.400635,1523.067505 2249.133057,1484.997314 2268.191162,1448.330444 
	C2294.075439,1398.530640 2324.445801,1351.777344 2362.468262,1310.279053 
	C2391.908691,1278.147217 2424.786377,1250.348145 2464.090820,1230.812134 
	C2504.385986,1210.783691 2546.697266,1202.165405 2591.733643,1207.328979 
	C2611.056152,1209.544678 2629.486572,1214.916260 2649.969727,1222.247314 
	C2662.048096,1227.453247 2674.126465,1232.659180 2687.903809,1239.248901 
	C2689.323486,1239.448486 2690.743408,1239.648071 2692.747070,1241.392578 
	C2693.747559,1241.608276 2694.748291,1241.823853 2695.748779,1242.039551 
	C2695.048096,1241.322754 2694.435059,1240.465210 2693.608887,1239.950195 
	C2693.211182,1239.702393 2692.410889,1240.100464 2692.087891,1237.987305 
M2644.905029,1678.902466 
	C2649.345459,1681.820679 2653.919678,1684.555542 2658.206299,1687.684326 
	C2746.477539,1752.109619 2845.527832,1788.666260 2953.865723,1798.950073 
	C3007.550049,1804.045776 3061.628174,1805.024292 3115.534424,1807.739990 
	C3143.475098,1809.147705 3171.490479,1809.507568 3199.365479,1811.698120 
	C3258.766602,1816.366211 3316.669189,1828.784790 3372.760010,1848.906128 
	C3418.178223,1865.198975 3461.014648,1886.552002 3498.331787,1917.725342 
	C3559.724121,1969.010254 3589.832764,2034.142090 3584.823242,2114.604492 
	C3583.999756,2127.829346 3582.578857,2141.017334 3581.147461,2157.531250 
	C3584.024414,2150.320312 3586.189209,2146.225098 3587.320312,2141.861816 
	C3607.419922,2064.325439 3596.287598,1992.561279 3547.206543,1928.022217 
	C3523.945557,1897.435059 3495.297119,1872.675903 3463.093018,1851.960938 
	C3408.685059,1816.963745 3349.407227,1793.660034 3286.354980,1780.069458 
	C3228.202393,1767.534912 3168.997559,1763.283203 3109.760498,1760.093872 
	C3054.529297,1757.119995 2999.235596,1755.310059 2944.003662,1752.348755 
	C2891.297363,1749.522949 2839.379639,1741.125366 2788.323242,1727.688110 
	C2737.871582,1714.409668 2689.935059,1694.848267 2642.966797,1667.579590 
	C2638.780273,1665.468750 2634.593994,1663.357910 2627.187744,1659.623535 
	C2632.206055,1669.375488 2637.609375,1673.224976 2644.905029,1678.902466 
M1519.188477,1831.580688 
	C1525.421753,1824.849731 1531.723022,1818.179932 1537.843506,1811.347900 
	C1539.507080,1809.490967 1541.115845,1807.153442 1537.510986,1804.590942 
	C1527.959595,1811.063965 1518.121704,1817.401611 1509.435547,1829.152954 
	C1505.729492,1832.975220 1501.891968,1836.679321 1498.337524,1840.637817 
	C1456.360596,1887.387817 1436.273804,1942.469849 1437.333984,2005.012695 
	C1437.878052,2037.105225 1443.956543,2068.495361 1454.290771,2098.966797 
	C1478.402100,2170.061523 1516.739136,2232.690918 1568.304932,2286.982666 
	C1589.361328,2309.151855 1611.618530,2330.385254 1634.915649,2350.177490 
	C1677.015503,2385.943848 1720.334229,2420.274902 1763.092407,2455.267822 
	C1792.452393,2479.295898 1822.478638,2502.577881 1850.888306,2527.685303 
	C1921.022949,2589.667969 1978.303467,2661.615723 2016.918945,2750.200439 
	C2019.702393,2755.252930 2020.104980,2761.841309 2027.843994,2766.485352 
	C2025.617065,2759.073975 2024.006470,2753.713867 2021.466309,2745.124023 
	C2014.782471,2724.940186 2009.109009,2704.352783 2001.243042,2684.640869 
	C1963.720703,2590.610107 1904.643555,2512.165283 1827.571411,2446.921875 
	C1784.895264,2410.795410 1741.494873,2375.614990 1696.638306,2342.186035 
	C1633.744263,2295.314697 1579.091553,2240.184326 1534.420898,2175.521240 
	C1505.482422,2133.631348 1482.180908,2088.979736 1470.421753,2039.007080 
	C1453.599731,1967.519287 1465.381958,1901.703369 1509.748047,1842.427612 
	C1512.136230,1839.236694 1514.429199,1835.974609 1519.188477,1831.580688 
M3001.203613,3280.481934 
	C2991.634766,3282.171143 2982.065918,3283.860596 2972.497314,3285.549805 
	C2983.290283,3288.047607 2993.958496,3289.574463 3007.773926,3286.349854 
	C3012.402588,3285.762207 3017.030029,3285.164551 3021.660156,3284.588623 
	C3077.202148,3277.680176 3124.963867,3254.899414 3164.077148,3214.603516 
	C3188.534668,3189.406494 3206.565430,3160.007568 3220.175049,3127.789551 
	C3238.773926,3083.760498 3248.110596,3037.581299 3252.037109,2990.145508 
	C3257.085693,2929.156738 3251.016357,2869.070557 3238.155518,2809.423340 
	C3224.668213,2746.872070 3207.985107,2685.166260 3190.143066,2623.755371 
	C3173.027832,2564.846680 3158.017334,2505.540039 3150.709717,2444.425537 
	C3142.485596,2375.643799 3144.639160,2307.429932 3160.046387,2237.747314 
	C3160.905273,2233.528564 3161.763916,2229.309814 3163.173340,2222.386719 
	C3155.508301,2228.351318 3154.322266,2234.457520 3151.899414,2243.221436 
	C3110.789795,2353.033936 3104.999512,2465.282471 3129.883301,2579.297852 
	C3142.944580,2639.146240 3160.027344,2697.965088 3177.817383,2756.597900 
	C3205.537842,2847.960938 3218.836670,2941.072998 3208.052979,3036.669434 
	C3203.772461,3074.615234 3194.935547,3111.432129 3178.969727,3146.249023 
	C3149.213623,3211.137695 3100.257568,3254.169434 3031.601074,3274.347656 
	C3022.673340,3276.971680 3013.488525,3278.721436 3001.203613,3280.481934 
M1734.621460,3094.799805 
	C1764.619141,3162.719971 1814.707886,3208.319336 1885.784424,3230.338623 
	C1913.301758,3238.863281 1941.642334,3243.187500 1970.410889,3243.506592 
	C2048.349609,3244.370850 2122.429199,3226.914062 2192.758789,3193.967041 
	C2218.647217,3181.839111 2243.707275,3167.791016 2268.487305,3153.480225 
	C2322.171631,3122.476807 2373.495361,3087.735840 2424.730225,3052.889893 
	C2460.000977,3028.900879 2495.888184,3005.925537 2533.524902,2985.760254 
	C2597.371582,2951.551025 2664.306641,2926.096191 2735.998047,2914.126709 
	C2752.293945,2911.405762 2768.677734,2909.210205 2787.050049,2906.470215 
	C2783.718750,2905.323730 2782.611572,2904.715332 2781.450439,2904.584229 
	C2777.479492,2904.135498 2773.495850,2903.725830 2769.505859,2903.528564 
	C2722.701416,2901.215576 2676.305176,2904.396973 2630.352539,2913.780762 
	C2559.819092,2928.184326 2494.002197,2954.418945 2432.545410,2991.870117 
	C2381.886963,3022.740234 2332.636475,3055.705811 2284.003906,3089.657471 
	C2221.312988,3133.424316 2153.740479,3167.534912 2080.432129,3189.710205 
	C2027.740967,3205.648682 1974.180420,3214.636230 1918.818726,3208.445068 
	C1853.261108,3201.113281 1799.609009,3172.540771 1759.323730,3119.920410 
	C1752.452026,3110.944580 1746.450195,3101.302490 1739.660767,3089.137939 
	C1736.954468,3083.872559 1734.597168,3078.386230 1731.442871,3073.404541 
	C1728.335449,3068.497070 1727.609375,3061.842773 1720.489258,3057.947510 
	C1724.062988,3070.534424 1726.596802,3082.029785 1734.621460,3094.799805 
M1766.621948,2160.582275 
	C1767.079712,2160.148438 1767.537476,2159.714355 1767.995239,2159.280518 
	C1767.485718,2158.994141 1766.976196,2158.707520 1766.466797,2158.421143 
	C1765.982056,2159.523926 1765.497437,2160.626709 1767.803711,2162.309326 
	C1788.137451,2177.385254 1808.035522,2193.097656 1828.908325,2207.386230 
	C1859.140991,2228.081787 1890.195190,2247.572998 1920.679443,2267.906738 
	C1945.619141,2284.541748 1970.791870,2300.906982 1994.898682,2318.696289 
	C2078.777344,2380.592773 2135.639160,2461.269531 2162.364258,2562.571777 
	C2173.446289,2604.578613 2180.437744,2647.295410 2183.496338,2690.545898 
	C2186.603516,2734.487061 2186.238037,2778.478271 2179.740479,2822.198730 
	C2173.038818,2867.290527 2160.853271,2910.711426 2139.995361,2951.492432 
	C2138.147949,2955.104492 2133.208252,2958.704834 2137.988037,2964.372559 
	C2141.932617,2962.104980 2146.114258,2960.116455 2149.843262,2957.485840 
	C2166.173584,2945.964111 2182.834229,2934.842773 2198.529297,2922.500977 
	C2238.339600,2891.195312 2277.638184,2859.239990 2317.253418,2827.685059 
	C2345.958008,2804.820312 2375.823486,2783.676270 2408.168701,2766.123291 
	C2474.639160,2730.050537 2545.649658,2712.496582 2621.195801,2714.072266 
	C2699.854492,2715.712891 2775.984863,2730.849121 2849.397217,2759.177246 
	C2909.130615,2782.226318 2963.426758,2813.895508 3007.976807,2860.735596 
	C3009.681641,2862.527832 3011.930664,2863.802734 3016.510742,2867.282471 
	C3013.830078,2856.796631 3012.049805,2849.143555 3009.914062,2841.590820 
	C2997.935059,2799.230225 2981.571777,2758.420898 2966.108643,2717.277832 
	C2951.118896,2677.394043 2935.619385,2637.625732 2922.689209,2597.059082 
	C2895.437988,2511.560303 2894.369629,2425.270020 2920.823975,2339.309814 
	C2946.849365,2254.742432 2990.059814,2179.365967 3046.864746,2111.817383 
	C3084.982666,2066.490234 3129.288330,2028.513794 3183.031982,2002.458740 
	C3185.215820,2001.399780 3187.194824,1999.917969 3191.959229,1996.967407 
	C3177.901367,1993.455078 3166.794189,1992.928345 3155.789062,1993.223389 
	C3113.161377,1994.366699 3070.541748,1995.844604 3027.925293,1997.372070 
	C2993.966553,1998.588989 2960.026855,2000.548096 2926.059326,2001.255493 
	C2900.750977,2001.782715 2875.502930,2000.277100 2850.312988,1996.781494 
	C2775.440918,1986.391724 2707.565186,1959.132690 2647.595703,1913.129517 
	C2579.154297,1860.627197 2522.504395,1797.391479 2478.819092,1722.895386 
	C2450.950195,1675.370850 2430.807373,1624.884644 2423.129150,1569.919556 
	C2422.804443,1567.595581 2421.272461,1565.440186 2419.835205,1562.129150 
	C2412.892090,1569.066284 2411.515869,1577.110962 2408.913574,1584.318237 
	C2394.197754,1625.078491 2383.572510,1667.060547 2372.026367,1708.777832 
	C2360.484619,1750.478149 2349.740723,1792.501587 2335.814697,1833.419312 
	C2302.189209,1932.216553 2240.828613,2009.707397 2152.146240,2065.279541 
	C2094.154053,2101.620117 2032.207275,2128.985840 1966.204712,2146.903076 
	C1920.981323,2159.179688 1874.907104,2166.091309 1827.889526,2164.078125 
	C1811.949707,2163.395508 1796.073242,2161.195801 1780.173340,2159.634766 
	C1774.907349,2159.117676 1769.546021,2157.632568 1766.621948,2160.582275 
M1767.357910,1957.347412 
	C1781.711914,1937.357056 1796.771484,1917.831421 1810.295044,1897.294312 
	C1862.023560,1818.736938 1902.947998,1734.336792 1942.972046,1649.483643 
	C1943.961914,1647.385010 1943.903320,1644.791748 1944.724976,1640.282227 
	C1939.218750,1641.955078 1935.567505,1642.863281 1932.060181,1644.160400 
	C1888.991211,1660.088013 1846.569336,1677.501221 1805.954590,1699.076172 
	C1774.130127,1715.981812 1743.890503,1735.243896 1716.521851,1758.807861 
	C1699.325317,1773.613770 1683.440063,1789.697021 1669.873047,1807.926514 
	C1648.394775,1836.785645 1634.595703,1868.715820 1631.162842,1904.864014 
	C1626.174805,1957.388306 1640.791626,2004.836670 1667.991821,2049.081299 
	C1668.901733,2050.561279 1670.972290,2051.328125 1672.343140,2052.313232 
	C1696.241821,2037.132690 1730.149902,2003.322388 1767.357910,1957.347412 
M3410.542725,2428.547607 
	C3419.824707,2410.114746 3429.726074,2391.963623 3438.260498,2373.190918 
	C3456.547363,2332.966064 3469.611816,2291.133545 3474.305908,2246.973877 
	C3480.364258,2189.982910 3467.363770,2138.485107 3429.836914,2094.226074 
	C3404.747559,2064.635742 3373.091797,2044.140991 3337.769043,2028.931763 
	C3335.482422,2027.947266 3332.728027,2028.049683 3330.122803,2027.635742 
	C3329.044189,2029.969238 3327.991211,2031.684082 3327.442139,2033.547485 
	C3326.126465,2038.013916 3324.949951,2042.527466 3323.888672,2047.062012 
	C3314.136719,2088.741699 3309.809082,2131.093750 3308.609863,2173.792236 
	C3307.203125,2223.861328 3311.160645,2273.687744 3317.137451,2323.309570 
	C3324.784180,2386.793701 3335.945068,2449.747559 3347.960205,2512.540527 
	C3348.395752,2514.816406 3347.605713,2518.188965 3351.406250,2518.735840 
	C3363.753662,2507.415283 3379.611816,2483.271484 3410.542725,2428.547607 
M2719.665039,1357.871094 
	C2626.123047,1326.660156 2537.838623,1374.990845 2491.926025,1437.863403 
	C2495.516846,1440.527954 2498.867920,1443.655762 2502.762207,1445.795776 
	C2521.418213,1456.047974 2539.837646,1466.839600 2559.041504,1475.966187 
	C2624.395996,1507.026123 2693.712646,1525.715698 2764.341553,1539.978027 
	C2828.962646,1553.027100 2894.154541,1562.572632 2959.497559,1571.126831 
	C2961.780518,1571.425659 2964.165771,1570.943115 2968.805176,1570.708130 
	C2965.416260,1565.650513 2963.507324,1562.296509 2961.120605,1559.326416 
	C2950.693115,1546.350342 2940.323242,1533.319336 2929.573730,1520.611694 
	C2895.517578,1480.351929 2859.183594,1442.390381 2816.741943,1410.743652 
	C2787.781738,1389.149292 2757.050781,1370.715454 2719.665039,1357.871094 
M2637.211182,3139.112549 
	C2614.406738,3151.496826 2591.599854,3163.876221 2568.815186,3176.296143 
	C2568.288818,3176.583008 2567.871094,3177.278076 2567.663086,3177.874023 
	C2567.495117,3178.355469 2567.720215,3178.974365 2567.853516,3180.436279 
	C2569.779541,3181.309570 2572.020752,3182.692139 2574.458008,3183.377930 
	C2629.607422,3198.883789 2685.142578,3212.197754 2742.434326,3217.526611 
	C2783.218506,3221.319580 2823.589111,3220.271973 2863.630127,3211.863037 
	C2944.727539,3194.831055 2997.169434,3146.337402 3020.178467,3066.773193 
	C3024.957031,3050.249268 3026.986084,3032.916504 3029.972900,3015.902100 
	C3030.481934,3013.001709 3029.422363,3009.825928 3028.937500,3005.413574 
	C3012.496094,3006.968018 2997.279053,3007.870117 2982.219238,3009.925293 
	C2922.517578,3018.072998 2865.364502,3035.584717 2809.489502,3057.678223 
	C2751.220215,3080.718506 2695.435303,3109.018066 2637.211182,3139.112549 
M1912.684692,2861.311035 
	C1850.358276,2780.043701 1776.704102,2709.484863 1702.674561,2639.288086 
	C1701.472534,2638.148682 1699.456787,2637.867188 1696.320923,2636.560059 
	C1696.063232,2640.822510 1695.558960,2643.956543 1695.737183,2647.051270 
	C1697.001587,2669.006836 1698.209351,2690.968262 1699.807129,2712.900879 
	C1702.911987,2755.521973 1709.286377,2797.657227 1720.675537,2838.881348 
	C1731.560181,2878.279297 1746.902100,2915.810791 1770.506958,2949.509277 
	C1797.084717,2987.452393 1832.243774,3013.579590 1877.252075,3025.675293 
	C1917.425171,3036.471191 1957.696655,3035.102783 1997.898193,3025.702148 
	C2000.167480,3025.171143 2002.105591,3023.223633 2004.767090,3021.585205 
	C1982.702393,2963.610596 1951.119995,2912.145752 1912.684692,2861.311035 
M2622.053467,1657.933105 
	C2622.053467,1657.933105 2622.190430,1658.169067 2622.053467,1657.933105 
z"/>
<path fill="#FCFCFD" opacity="1.000000" stroke="none" 
	d="
M1123.166504,3889.265625 
	C1102.891846,3827.067627 1083.083618,3766.383057 1062.226562,3702.484863 
	C1049.600952,3732.465576 1041.850464,3760.643555 1032.258667,3788.138672 
	C1022.616028,3815.780518 1013.556458,3843.625244 1004.235107,3871.379150 
	C994.930481,3899.084229 985.618591,3926.786865 976.513611,3953.883789 
	C959.838623,3956.498535 903.383362,3956.758789 884.039124,3954.515137 
	C877.057312,3940.762207 768.458252,3612.835938 760.616333,3581.816650 
	C761.506653,3580.931152 762.331238,3579.349365 763.287476,3579.265137 
	C768.578186,3578.800049 773.900269,3578.521240 779.212585,3578.504150 
	C801.802734,3578.431396 824.393311,3578.473145 845.886047,3578.473145 
	C853.093140,3583.800293 853.199951,3591.076172 855.166687,3597.145752 
	C878.345703,3668.680664 901.191406,3740.323486 924.170105,3811.923584 
	C926.799500,3820.116699 929.702820,3828.221924 932.511841,3836.463867 
	C938.887146,3834.857666 938.895325,3829.771729 940.252686,3825.736572 
	C965.496521,3750.684814 990.688538,3675.615723 1015.903320,3600.554443 
	C1018.208740,3593.691162 1020.593933,3586.854736 1023.294250,3578.978760 
	C1037.162842,3578.073242 1050.387329,3578.578613 1063.576660,3578.489990 
	C1076.225586,3578.405273 1088.875610,3578.471924 1102.560669,3578.471924 
	C1104.482300,3582.579834 1106.841553,3586.495850 1108.216919,3590.731445 
	C1133.291748,3667.948730 1158.242554,3745.206055 1183.242432,3822.447754 
	C1185.074707,3828.108887 1187.079224,3833.714111 1189.829712,3841.762695 
	C1192.678589,3835.773193 1194.978149,3832.021729 1196.321289,3827.954590 
	C1221.568481,3751.496338 1246.692261,3674.997314 1271.879395,3598.519287 
	C1273.936890,3592.271973 1276.265625,3586.114258 1278.304932,3580.375000 
	C1294.735840,3577.923096 1340.446899,3577.777832 1359.990356,3580.149170 
	C1359.065430,3584.528809 1358.552246,3588.916260 1357.209106,3593.032715 
	C1322.734253,3698.687500 1288.180542,3804.316162 1253.618286,3909.942383 
	C1248.688110,3925.008789 1243.644043,3940.037598 1238.577881,3955.309570 
	C1206.867798,3955.309570 1176.335815,3955.309570 1144.678345,3955.309570 
	C1137.625610,3933.683594 1130.629395,3912.231201 1123.166504,3889.265625 
z"/>
<path fill="#FDFDFE" opacity="1.000000" stroke="none" 
	d="
M3796.957031,3652.004395 
	C3796.957031,3627.372559 3796.957031,3604.738281 3796.957031,3581.461914 
	C3799.867920,3580.381104 3802.190918,3578.778564 3804.521729,3578.767090 
	C3829.180664,3578.645996 3853.840576,3578.759033 3878.500000,3578.895264 
	C3879.745117,3578.902100 3880.986328,3579.712158 3882.229004,3580.148926 
	C3882.608154,3580.639160 3883.056641,3581.091309 3883.348389,3581.628418 
	C3883.663574,3582.208008 3884.037109,3582.867188 3884.037842,3583.491943 
	C3884.194580,3704.138428 3884.325195,3824.785156 3884.410889,3945.431641 
	C3884.412842,3948.026367 3883.882324,3950.621826 3883.500000,3954.138184 
	C3869.699707,3957.711670 3855.767822,3955.504395 3842.037842,3955.872803 
	C3828.086182,3956.247314 3814.116699,3955.955566 3801.313477,3955.955566 
	C3795.606201,3950.616455 3797.033936,3945.003418 3797.019287,3939.869141 
	C3796.908691,3901.205322 3796.958008,3862.541016 3796.957275,3823.876709 
	C3796.957275,3817.262451 3796.957031,3810.648438 3796.957031,3803.274170 
	C3792.913086,3802.318604 3789.874756,3800.980957 3786.833252,3800.973633 
	C3736.170166,3800.851562 3685.507080,3800.884277 3634.843750,3800.950195 
	C3632.929688,3800.952637 3631.016357,3801.637939 3629.650879,3801.899902 
	C3623.990723,3806.281494 3625.647461,3812.006348 3625.629883,3817.078857 
	C3625.492432,3856.409180 3625.617188,3895.740723 3625.482910,3935.071045 
	C3625.460449,3941.618164 3626.933350,3948.435059 3622.945801,3955.285645 
	C3596.071045,3955.285645 3568.847412,3955.285645 3541.118164,3955.285645 
	C3536.872314,3948.480957 3538.618164,3941.010254 3538.610352,3933.983643 
	C3538.486084,3822.657227 3538.510254,3711.330811 3538.554199,3600.004395 
	C3538.556885,3593.486816 3539.016357,3586.969238 3539.251709,3580.754395 
	C3556.713135,3577.834229 3605.413330,3577.695068 3624.812256,3580.530273 
	C3625.045410,3584.709229 3625.504639,3589.187744 3625.511719,3593.666748 
	C3625.571045,3630.997803 3625.495605,3668.329102 3625.598389,3705.659668 
	C3625.616211,3712.203857 3624.483154,3718.953125 3627.505371,3725.374512 
	C3629.562500,3726.029785 3631.416748,3727.132812 3633.273926,3727.137207 
	C3685.267334,3727.254639 3737.260742,3727.277588 3789.254395,3727.220703 
	C3791.106201,3727.218750 3792.957275,3726.250000 3794.480469,3725.823486 
	C3795.288086,3724.229248 3796.356445,3723.095703 3796.370117,3721.949463 
	C3796.639160,3699.301270 3796.785400,3676.651611 3796.957031,3652.004395 
z"/>
<path fill="#FBFBFD" opacity="1.000000" stroke="none" 
	d="
M3352.001221,3885.587891 
	C3389.968262,3885.693359 3425.935303,3885.787109 3461.902100,3885.956787 
	C3463.137451,3885.962402 3464.368896,3886.732910 3467.094238,3887.647949 
	C3470.399414,3909.218018 3467.628418,3931.424072 3468.571777,3952.009521 
	C3466.322754,3954.041016 3465.880371,3954.574707 3465.319092,3954.908936 
	C3464.781250,3955.229248 3464.120605,3955.520020 3463.513428,3955.521240 
	C3372.260498,3955.689453 3281.007324,3955.838867 3189.754395,3955.937744 
	C3186.446045,3955.941406 3183.131592,3955.488281 3179.834717,3955.118164 
	C3179.301514,3955.058350 3178.844727,3954.315186 3180.661133,3955.891846 
	C3177.934814,3953.364258 3177.300293,3952.990479 3176.998535,3952.435547 
	C3176.696533,3951.880859 3176.625977,3951.145508 3176.625244,3950.489502 
	C3176.490723,3829.262451 3176.366455,3708.035156 3176.292969,3586.808105 
	C3176.291748,3584.856201 3176.916016,3582.904053 3177.284668,3580.740234 
	C3179.160645,3580.081299 3180.991943,3578.876709 3182.824219,3578.874756 
	C3274.702637,3578.782959 3366.580811,3578.794189 3459.169922,3578.794189 
	C3463.742920,3589.964111 3461.034668,3601.323975 3461.470703,3612.332520 
	C3461.915039,3623.549805 3461.420410,3634.804443 3461.329834,3647.013672 
	C3438.949463,3649.696045 3417.786621,3647.955322 3396.711182,3648.254150 
	C3374.732910,3648.566162 3352.747070,3648.323975 3330.764404,3648.323975 
	C3309.496338,3648.323975 3288.228027,3648.324219 3265.910645,3648.324219 
	C3265.020264,3652.660400 3263.647217,3656.325928 3263.614258,3660.003906 
	C3263.412109,3682.562744 3263.512695,3705.124512 3263.512695,3727.282715 
	C3269.942383,3732.101074 3276.106445,3730.549805 3281.800537,3730.568115 
	C3327.097412,3730.713623 3372.395264,3730.608398 3417.692627,3730.697998 
	C3424.224121,3730.710938 3430.959229,3729.621094 3438.618652,3733.073242 
	C3438.872314,3753.966064 3439.493652,3774.980957 3438.138184,3797.173828 
	C3431.993408,3797.756348 3426.881348,3798.649170 3421.767090,3798.661865 
	C3377.135986,3798.772949 3332.504883,3798.726562 3287.873535,3798.727051 
	C3280.634521,3798.727051 3273.395508,3798.727295 3266.503906,3798.727295 
	C3262.808350,3813.160156 3262.177734,3858.490479 3265.012451,3882.811768 
	C3265.427002,3883.333252 3265.756104,3883.978271 3266.280518,3884.340576 
	C3266.786621,3884.690186 3267.493164,3884.905273 3268.114014,3884.910889 
	C3295.409668,3885.155273 3322.705322,3885.369629 3352.001221,3885.587891 
z"/>
<path fill="#FBFBFD" opacity="1.000000" stroke="none" 
	d="
M4012.769043,3592.660156 
	C4035.659180,3580.623291 4058.983887,3575.178467 4082.959229,3573.014404 
	C4125.250488,3569.196777 4166.747070,3573.515381 4206.835449,3588.162842 
	C4218.603516,3592.462646 4230.382812,3596.974121 4240.023438,3604.838379 
	C4236.566406,3622.095703 4222.277832,3656.958008 4213.376465,3669.905029 
	C4207.518555,3667.167480 4201.568848,3664.343018 4195.583496,3661.597412 
	C4161.578613,3646.000244 4126.094727,3638.864502 4088.723389,3643.668213 
	C4080.875000,3644.677002 4073.018311,3646.653320 4065.544434,3649.266846 
	C4057.260742,3652.163574 4050.363037,3657.593262 4045.272949,3664.891846 
	C4034.149170,3680.843506 4038.190186,3702.072998 4055.227783,3711.420410 
	C4065.035645,3716.801270 4075.937988,3720.563721 4086.746826,3723.662354 
	C4107.198730,3729.525635 4128.001953,3734.150635 4148.535156,3739.746094 
	C4162.001953,3743.415283 4175.310547,3747.699707 4188.578613,3752.050049 
	C4200.681641,3756.019043 4211.634766,3762.248047 4221.952148,3769.747070 
	C4249.208008,3789.556396 4260.070801,3817.089844 4258.437988,3849.677002 
	C4256.658691,3885.194092 4240.424316,3913.171875 4210.936523,3933.266846 
	C4189.596191,3947.809814 4165.703613,3955.891846 4140.412109,3959.434570 
	C4089.361816,3966.585693 4039.423340,3961.293213 3991.055176,3943.390625 
	C3974.948975,3937.429199 3958.946533,3930.779053 3945.745850,3918.473633 
	C3946.642334,3915.506104 3947.127686,3912.921631 3948.174805,3910.589355 
	C3956.326660,3892.429688 3964.586670,3874.319092 3973.406738,3854.886230 
	C3978.150391,3857.042725 3982.291016,3858.494629 3986.001221,3860.677979 
	C4024.313232,3883.222900 4065.625488,3893.922852 4110.046387,3891.801270 
	C4119.287598,3891.359863 4128.521973,3889.561768 4137.621582,3887.710449 
	C4146.209961,3885.963135 4153.924805,3881.919678 4160.449219,3875.970703 
	C4176.069824,3861.728271 4175.218262,3840.867676 4158.587891,3827.694092 
	C4148.986328,3820.087891 4137.707520,3815.936523 4126.162598,3812.726562 
	C4109.504883,3808.094971 4092.577881,3804.433105 4075.912598,3799.824707 
	C4057.969238,3794.862793 4040.070068,3789.665527 4022.403809,3783.809570 
	C4014.269531,3781.113281 4006.320068,3777.282715 3999.001953,3772.798828 
	C3962.528076,3750.452148 3946.249756,3718.017822 3953.803955,3670.430664 
	C3958.529541,3640.663818 3974.557373,3617.504883 3999.521240,3600.618896 
	C4003.375244,3598.011719 4007.460938,3595.746582 4012.769043,3592.660156 
z"/>
<path fill="#FBFBFD" opacity="1.000000" stroke="none" 
	d="
M1812.638306,3834.519043 
	C1836.324707,3870.046875 1869.292236,3885.856689 1909.606689,3887.770508 
	C1949.516113,3889.665039 1982.161987,3874.078613 2008.635498,3845.156250 
	C2021.505127,3852.893311 2044.832031,3873.672363 2064.436768,3894.834961 
	C2062.442627,3897.770264 2060.685303,3901.270020 2058.113037,3904.002686 
	C2029.671875,3934.220215 1994.224854,3951.547363 1953.837769,3958.665283 
	C1915.937012,3965.344971 1878.053467,3964.266113 1841.299683,3952.026855 
	C1771.387207,3928.745117 1725.081421,3882.071533 1710.293335,3809.257324 
	C1686.100708,3690.135742 1760.293335,3594.993164 1867.294434,3575.759033 
	C1907.356445,3568.558105 1946.846802,3570.623047 1985.540039,3583.749268 
	C2013.133789,3593.110107 2037.185303,3608.166016 2057.489258,3629.114502 
	C2059.339111,3631.022705 2061.114014,3633.033936 2062.675781,3635.177490 
	C2063.382812,3636.147705 2063.482910,3637.560303 2064.290771,3640.167725 
	C2047.032227,3656.548584 2029.184692,3673.208496 2010.539185,3689.668457 
	C2005.120728,3684.741943 2000.690186,3680.763672 1996.313599,3676.727051 
	C1952.837524,3636.627441 1886.783936,3641.107422 1850.854492,3662.740723 
	C1820.390747,3681.083496 1802.192505,3707.974854 1796.587891,3742.615967 
	C1791.474487,3774.221436 1794.596924,3805.089355 1812.638306,3834.519043 
z"/>
<path fill="#FAFAFC" opacity="1.000000" stroke="none" 
	d="
M2661.950195,3766.374512 
	C2682.758789,3705.261230 2725.035400,3672.552002 2786.483643,3663.180420 
	C2817.556152,3658.441650 2847.710449,3661.977539 2876.449707,3674.510986 
	C2925.187744,3695.766113 2951.886475,3734.066162 2959.783691,3785.908203 
	C2962.179443,3801.636475 2962.265869,3817.591797 2958.965820,3834.705566 
	C2934.350098,3835.107910 2910.432861,3834.844727 2886.524902,3834.892822 
	C2863.205811,3834.939697 2839.886475,3834.903320 2816.567383,3834.903320 
	C2792.638184,3834.903320 2768.709229,3834.903076 2743.319580,3834.903076 
	C2743.811768,3839.890137 2743.296631,3843.875244 2744.661865,3847.052734 
	C2756.323242,3874.192627 2778.494873,3887.622559 2806.538818,3891.396973 
	C2836.557617,3895.437256 2865.039307,3890.930176 2889.387939,3870.863525 
	C2891.354736,3869.242920 2893.664795,3868.039062 2896.506592,3866.192139 
	C2912.484619,3880.985352 2926.135010,3897.044434 2940.630127,3912.974854 
	C2921.668701,3936.046631 2897.701416,3948.395996 2870.650146,3954.748779 
	C2833.638672,3963.441650 2796.441650,3962.897461 2760.109131,3951.347900 
	C2710.479980,3935.571289 2675.869141,3903.726074 2661.236328,3852.808105 
	C2653.160645,3824.706787 2653.891602,3796.183838 2661.950195,3766.374512 
M2803.689453,3725.153320 
	C2797.841309,3726.332764 2791.850830,3727.043945 2786.169922,3728.772705 
	C2760.809570,3736.490234 2743.527588,3757.871094 2741.600342,3784.753174 
	C2756.822754,3784.890869 2771.973877,3785.083984 2787.125488,3785.149414 
	C2803.045410,3785.218262 2818.974854,3785.505371 2834.883057,3785.066895 
	C2849.861084,3784.653564 2865.026367,3787.064209 2879.866211,3783.501221 
	C2877.504883,3757.050049 2859.986084,3735.602295 2834.453125,3728.607422 
	C2825.624512,3726.188965 2816.161133,3726.089111 2803.689453,3725.153320 
z"/>
<path fill="#FAFAFC" opacity="1.000000" stroke="none" 
	d="
M1484.214355,3956.088379 
	C1471.152954,3952.159668 1459.412354,3949.320801 1448.458374,3944.640625 
	C1398.258911,3923.191162 1360.814209,3877.479736 1361.580322,3808.540039 
	C1362.365845,3737.849609 1407.386230,3682.148438 1476.197876,3665.942139 
	C1513.582031,3657.137451 1550.430664,3659.802979 1585.603027,3675.914307 
	C1627.929932,3695.302490 1653.140137,3728.843018 1663.541382,3773.728760 
	C1667.311523,3789.998535 1668.841675,3806.626465 1666.936890,3823.368408 
	C1666.573608,3826.562256 1665.647949,3829.692139 1664.735229,3834.020020 
	C1657.614380,3834.333984 1651.131592,3834.860840 1644.648438,3834.867920 
	C1586.009644,3834.932373 1527.370972,3834.886963 1468.732178,3834.932617 
	C1462.205811,3834.937500 1455.679810,3835.310791 1448.008667,3835.548828 
	C1448.874634,3840.095703 1448.941406,3843.445801 1450.148193,3846.316406 
	C1461.600342,3873.557129 1483.561157,3887.364746 1511.590210,3891.295410 
	C1542.298706,3895.602051 1571.438110,3891.010254 1596.129395,3870.024902 
	C1597.623291,3868.755615 1599.502441,3867.939453 1601.145020,3866.947021 
	C1612.496582,3874.897217 1631.918701,3895.391113 1645.316772,3913.716309 
	C1642.596924,3916.919922 1640.038330,3920.698242 1636.755859,3923.679443 
	C1610.924072,3947.140869 1579.580811,3957.077881 1545.572754,3959.588623 
	C1525.616211,3961.062256 1505.601562,3960.825195 1484.214355,3956.088379 
M1537.044800,3727.648682 
	C1531.157715,3726.736328 1525.294189,3725.247803 1519.379761,3725.006836 
	C1486.895752,3723.682373 1459.028564,3741.571533 1449.153931,3770.109619 
	C1447.731201,3774.221436 1447.866821,3778.872314 1447.204346,3783.852539 
	C1463.466187,3786.416992 1478.707153,3784.827881 1493.866089,3785.098877 
	C1509.785522,3785.383301 1525.719727,3785.430908 1541.636597,3785.084229 
	C1556.571411,3784.758789 1571.674438,3786.694092 1587.502808,3783.445068 
	C1581.923462,3754.979980 1566.101318,3737.327393 1537.044800,3727.648682 
z"/>
<path fill="#FBFBFD" opacity="1.000000" stroke="none" 
	d="
M2175.386230,3957.245361 
	C2159.762451,3954.404297 2146.816406,3949.302002 2135.069092,3941.434570 
	C2107.622803,3923.053467 2096.166992,3896.935791 2098.515381,3864.402344 
	C2100.873047,3831.736328 2118.907959,3810.355713 2147.947998,3797.592041 
	C2170.300537,3787.767090 2194.340576,3786.091553 2218.333008,3785.321045 
	C2236.291992,3784.744385 2254.282715,3785.226074 2272.257812,3785.058838 
	C2277.438721,3785.010742 2282.614014,3784.345703 2287.688721,3783.971191 
	C2288.134766,3756.416504 2276.221680,3739.304688 2251.981445,3732.222656 
	C2228.875000,3725.471924 2205.725830,3727.198242 2183.089111,3734.090088 
	C2171.732422,3737.547852 2161.003418,3743.103516 2150.069336,3747.889893 
	C2146.552490,3749.429443 2143.287598,3751.544189 2139.085205,3753.845947 
	C2127.913818,3735.344482 2119.320801,3716.787598 2109.671143,3697.844482 
	C2113.033936,3694.949219 2115.653076,3691.975098 2118.889160,3690.025146 
	C2139.673096,3677.501709 2162.438721,3670.190918 2186.126221,3665.818359 
	C2219.867432,3659.590332 2253.612061,3658.911133 2287.112549,3667.684570 
	C2338.080322,3681.032715 2367.769287,3716.073730 2372.304443,3768.342773 
	C2372.994629,3776.293213 2373.363770,3784.296387 2373.381836,3792.276123 
	C2373.491699,3840.878906 2373.485840,3889.481934 2373.427734,3938.084717 
	C2373.421387,3943.327393 2372.834717,3948.569824 2372.530273,3953.599365 
	C2357.428711,3956.586914 2315.807861,3956.917725 2296.145996,3954.246582 
	C2295.494629,3945.967285 2294.829834,3937.514160 2294.025635,3927.288574 
	C2290.800537,3929.008057 2288.365723,3929.618896 2286.952637,3931.164062 
	C2270.225098,3949.453369 2248.512207,3956.998047 2224.772705,3959.354736 
	C2208.888916,3960.931885 2192.853516,3961.183350 2175.386230,3957.245361 
M2285.460693,3835.409180 
	C2264.887451,3835.294189 2244.299316,3834.682861 2223.748535,3835.304443 
	C2215.304199,3835.559570 2206.481445,3837.313232 2198.637695,3840.421875 
	C2183.155029,3846.557373 2176.408447,3862.380859 2181.323242,3878.114502 
	C2184.514160,3888.329102 2191.568359,3895.416748 2201.349121,3898.895752 
	C2226.908447,3907.986084 2251.175537,3905.029297 2272.808594,3888.246582 
	C2283.740479,3879.765625 2290.371582,3868.456299 2289.207520,3853.786621 
	C2288.788086,3848.505371 2288.663086,3843.200684 2285.460693,3835.409180 
z"/>
<path fill="#F9F9FC" opacity="1.000000" stroke="none" 
	d="
M2535.294189,3801.925293 
	C2534.683838,3815.705078 2533.976807,3827.684814 2533.912109,3839.667969 
	C2533.743164,3870.995361 2533.894775,3902.323730 2533.822998,3933.651855 
	C2533.807861,3940.230713 2533.383789,3946.808594 2533.158447,3953.099121 
	C2518.490479,3956.753662 2469.913086,3957.151611 2450.948730,3953.871582 
	C2450.488281,3951.615723 2449.523682,3949.088867 2449.521484,3946.561035 
	C2449.444580,3853.973877 2449.456787,3761.386719 2449.456787,3668.398193 
	C2463.215820,3662.874023 2476.587646,3666.053467 2489.584961,3665.491943 
	C2502.122803,3664.950195 2514.704346,3665.422363 2527.047363,3665.448730 
	C2533.038086,3675.801514 2528.042480,3686.473877 2532.353271,3697.113037 
	C2542.778564,3692.096436 2549.263428,3681.968994 2559.491699,3677.779053 
	C2570.546631,3673.250977 2581.563721,3668.263428 2593.067139,3665.302979 
	C2603.861084,3662.525146 2615.163330,3660.786133 2627.288818,3661.721436 
	C2632.072510,3674.263428 2629.469727,3686.915039 2629.765137,3699.232422 
	C2630.065674,3711.762451 2630.640869,3724.389160 2628.853760,3737.988037 
	C2624.124023,3738.173096 2620.336426,3738.265869 2616.555908,3738.480469 
	C2607.920654,3738.970947 2599.120361,3738.625000 2590.687500,3740.213623 
	C2565.129883,3745.028564 2547.088379,3759.218262 2539.048584,3784.603516 
	C2537.450928,3789.647705 2536.655762,3794.946045 2535.294189,3801.925293 
z"/>
<path fill="#2E338C" opacity="1.000000" stroke="none" 
	d="
M1764.959839,2161.789551 
	C1769.546021,2157.632568 1774.907349,2159.117676 1780.173340,2159.634766 
	C1796.073242,2161.195801 1811.949707,2163.395508 1827.889526,2164.078125 
	C1874.907104,2166.091309 1920.981323,2159.179688 1966.204712,2146.903076 
	C2032.207275,2128.985840 2094.154053,2101.620117 2152.146240,2065.279541 
	C2240.828613,2009.707397 2302.189209,1932.216553 2335.814697,1833.419312 
	C2349.740723,1792.501587 2360.484619,1750.478149 2372.026367,1708.777832 
	C2383.572510,1667.060547 2394.197754,1625.078491 2408.913574,1584.318237 
	C2411.515869,1577.110962 2412.892090,1569.066284 2419.835205,1562.129150 
	C2421.272461,1565.440186 2422.804443,1567.595581 2423.129150,1569.919556 
	C2430.807373,1624.884644 2450.950195,1675.370850 2478.819092,1722.895386 
	C2522.504395,1797.391479 2579.154297,1860.627197 2647.595703,1913.129517 
	C2707.565186,1959.132690 2775.440918,1986.391724 2850.312988,1996.781494 
	C2875.502930,2000.277100 2900.750977,2001.782715 2926.059326,2001.255493 
	C2960.026855,2000.548096 2993.966553,1998.588989 3027.925293,1997.372070 
	C3070.541748,1995.844604 3113.161377,1994.366699 3155.789062,1993.223389 
	C3166.794189,1992.928345 3177.901367,1993.455078 3191.959229,1996.967407 
	C3187.194824,1999.917969 3185.215820,2001.399780 3183.031982,2002.458740 
	C3129.288330,2028.513794 3084.982666,2066.490234 3046.864746,2111.817383 
	C2990.059814,2179.365967 2946.849365,2254.742432 2920.823975,2339.309814 
	C2894.369629,2425.270020 2895.437988,2511.560303 2922.689209,2597.059082 
	C2935.619385,2637.625732 2951.118896,2677.394043 2966.108643,2717.277832 
	C2981.571777,2758.420898 2997.935059,2799.230225 3009.914062,2841.590820 
	C3012.049805,2849.143555 3013.830078,2856.796631 3016.510742,2867.282471 
	C3011.930664,2863.802734 3009.681641,2862.527832 3007.976807,2860.735596 
	C2963.426758,2813.895508 2909.130615,2782.226318 2849.397217,2759.177246 
	C2775.984863,2730.849121 2699.854492,2715.712891 2621.195801,2714.072266 
	C2545.649658,2712.496582 2474.639160,2730.050537 2408.168701,2766.123291 
	C2375.823486,2783.676270 2345.958008,2804.820312 2317.253418,2827.685059 
	C2277.638184,2859.239990 2238.339600,2891.195312 2198.529297,2922.500977 
	C2182.834229,2934.842773 2166.173584,2945.964111 2149.843262,2957.485840 
	C2146.114258,2960.116455 2141.932617,2962.104980 2137.988037,2964.372559 
	C2133.208252,2958.704834 2138.147949,2955.104492 2139.995361,2951.492432 
	C2160.853271,2910.711426 2173.038818,2867.290527 2179.740479,2822.198730 
	C2186.238037,2778.478271 2186.603516,2734.487061 2183.496338,2690.545898 
	C2180.437744,2647.295410 2173.446289,2604.578613 2162.364258,2562.571777 
	C2135.639160,2461.269531 2078.777344,2380.592773 1994.898682,2318.696289 
	C1970.791870,2300.906982 1945.619141,2284.541748 1920.679443,2267.906738 
	C1890.195190,2247.572998 1859.140991,2228.081787 1828.908325,2207.386230 
	C1808.035522,2193.097656 1788.137451,2177.385254 1766.556519,2161.964844 
	C1765.309326,2161.620117 1764.959839,2161.789551 1764.959839,2161.789551 
z"/>
<path fill="#2F348B" opacity="1.000000" stroke="none" 
	d="
M1766.451416,1958.444946 
	C1730.149902,2003.322388 1696.241821,2037.132690 1672.343140,2052.313232 
	C1670.972290,2051.328125 1668.901733,2050.561279 1667.991821,2049.081299 
	C1640.791626,2004.836670 1626.174805,1957.388306 1631.162842,1904.864014 
	C1634.595703,1868.715820 1648.394775,1836.785645 1669.873047,1807.926514 
	C1683.440063,1789.697021 1699.325317,1773.613770 1716.521851,1758.807861 
	C1743.890503,1735.243896 1774.130127,1715.981812 1805.954590,1699.076172 
	C1846.569336,1677.501221 1888.991211,1660.088013 1932.060181,1644.160400 
	C1935.567505,1642.863281 1939.218750,1641.955078 1944.724976,1640.282227 
	C1943.903320,1644.791748 1943.961914,1647.385010 1942.972046,1649.483643 
	C1902.947998,1734.336792 1862.023560,1818.736938 1810.295044,1897.294312 
	C1796.771484,1917.831421 1781.711914,1937.357056 1766.451416,1958.444946 
z"/>
<path fill="#30348B" opacity="1.000000" stroke="none" 
	d="
M3409.776855,2429.803955 
	C3379.611816,2483.271484 3363.753662,2507.415283 3351.406250,2518.735840 
	C3347.605713,2518.188965 3348.395752,2514.816406 3347.960205,2512.540527 
	C3335.945068,2449.747559 3324.784180,2386.793701 3317.137451,2323.309570 
	C3311.160645,2273.687744 3307.203125,2223.861328 3308.609863,2173.792236 
	C3309.809082,2131.093750 3314.136719,2088.741699 3323.888672,2047.062012 
	C3324.949951,2042.527466 3326.126465,2038.013916 3327.442139,2033.547485 
	C3327.991211,2031.684082 3329.044189,2029.969238 3330.122803,2027.635742 
	C3332.728027,2028.049683 3335.482422,2027.947266 3337.769043,2028.931763 
	C3373.091797,2044.140991 3404.747559,2064.635742 3429.836914,2094.226074 
	C3467.363770,2138.485107 3480.364258,2189.982910 3474.305908,2246.973877 
	C3469.611816,2291.133545 3456.547363,2332.966064 3438.260498,2373.190918 
	C3429.726074,2391.963623 3419.824707,2410.114746 3409.776855,2429.803955 
z"/>
<path fill="#2F348B" opacity="1.000000" stroke="none" 
	d="
M2721.151855,1358.440063 
	C2757.050781,1370.715454 2787.781738,1389.149292 2816.741943,1410.743652 
	C2859.183594,1442.390381 2895.517578,1480.351929 2929.573730,1520.611694 
	C2940.323242,1533.319336 2950.693115,1546.350342 2961.120605,1559.326416 
	C2963.507324,1562.296509 2965.416260,1565.650513 2968.805176,1570.708130 
	C2964.165771,1570.943115 2961.780518,1571.425659 2959.497559,1571.126831 
	C2894.154541,1562.572632 2828.962646,1553.027100 2764.341553,1539.978027 
	C2693.712646,1525.715698 2624.395996,1507.026123 2559.041504,1475.966187 
	C2539.837646,1466.839600 2521.418213,1456.047974 2502.762207,1445.795776 
	C2498.867920,1443.655762 2495.516846,1440.527954 2491.926025,1437.863403 
	C2537.838623,1374.990845 2626.123047,1326.660156 2721.151855,1358.440063 
z"/>
<path fill="#2F348B" opacity="1.000000" stroke="none" 
	d="
M2638.506104,3138.377930 
	C2695.435303,3109.018066 2751.220215,3080.718506 2809.489502,3057.678223 
	C2865.364502,3035.584717 2922.517578,3018.072998 2982.219238,3009.925293 
	C2997.279053,3007.870117 3012.496094,3006.968018 3028.937500,3005.413574 
	C3029.422363,3009.825928 3030.481934,3013.001709 3029.972900,3015.902100 
	C3026.986084,3032.916504 3024.957031,3050.249268 3020.178467,3066.773193 
	C2997.169434,3146.337402 2944.727539,3194.831055 2863.630127,3211.863037 
	C2823.589111,3220.271973 2783.218506,3221.319580 2742.434326,3217.526611 
	C2685.142578,3212.197754 2629.607422,3198.883789 2574.458008,3183.377930 
	C2572.020752,3182.692139 2569.779541,3181.309570 2567.853516,3180.436279 
	C2567.720215,3178.974365 2567.495117,3178.355469 2567.663086,3177.874023 
	C2567.871094,3177.278076 2568.288818,3176.583008 2568.815186,3176.296143 
	C2591.599854,3163.876221 2614.406738,3151.496826 2638.506104,3138.377930 
z"/>
<path fill="#2F348B" opacity="1.000000" stroke="none" 
	d="
M1913.568848,2862.436035 
	C1951.119995,2912.145752 1982.702393,2963.610596 2004.767090,3021.585205 
	C2002.105591,3023.223633 2000.167480,3025.171143 1997.898193,3025.702148 
	C1957.696655,3035.102783 1917.425171,3036.471191 1877.252075,3025.675293 
	C1832.243774,3013.579590 1797.084717,2987.452393 1770.506958,2949.509277 
	C1746.902100,2915.810791 1731.560181,2878.279297 1720.675537,2838.881348 
	C1709.286377,2797.657227 1702.911987,2755.521973 1699.807129,2712.900879 
	C1698.209351,2690.968262 1697.001587,2669.006836 1695.737183,2647.051270 
	C1695.558960,2643.956543 1696.063232,2640.822510 1696.320923,2636.560059 
	C1699.456787,2637.867188 1701.472534,2638.148682 1702.674561,2639.288086 
	C1776.704102,2709.484863 1850.358276,2780.043701 1913.568848,2862.436035 
z"/>
<path fill="#353788" opacity="1.000000" stroke="none" 
	d="
M1740.046631,3091.968018 
	C1746.450195,3101.302490 1752.452026,3110.944580 1759.323730,3119.920410 
	C1799.609009,3172.540771 1853.261108,3201.113281 1918.818726,3208.445068 
	C1974.180420,3214.636230 2027.740967,3205.648682 2080.432129,3189.710205 
	C2153.740479,3167.534912 2221.312988,3133.424316 2284.003906,3089.657471 
	C2332.636475,3055.705811 2381.886963,3022.740234 2432.545410,2991.870117 
	C2494.002197,2954.418945 2559.819092,2928.184326 2630.352539,2913.780762 
	C2676.305176,2904.396973 2722.701416,2901.215576 2769.505859,2903.528564 
	C2773.495850,2903.725830 2777.479492,2904.135498 2781.450439,2904.584229 
	C2782.611572,2904.715332 2783.718750,2905.323730 2787.050049,2906.470215 
	C2768.677734,2909.210205 2752.293945,2911.405762 2735.998047,2914.126709 
	C2664.306641,2926.096191 2597.371582,2951.551025 2533.524902,2985.760254 
	C2495.888184,3005.925537 2460.000977,3028.900879 2424.730225,3052.889893 
	C2373.495361,3087.735840 2322.171631,3122.476807 2268.487305,3153.480225 
	C2243.707275,3167.791016 2218.647217,3181.839111 2192.758789,3193.967041 
	C2122.429199,3226.914062 2048.349609,3244.370850 1970.410889,3243.506592 
	C1941.642334,3243.187500 1913.301758,3238.863281 1885.784424,3230.338623 
	C1814.707886,3208.319336 1764.619141,3162.719971 1735.660645,3093.425293 
	C1737.815552,3092.022949 1738.931152,3091.995605 1740.046631,3091.968018 
z"/>
<path fill="#343788" opacity="1.000000" stroke="none" 
	d="
M3158.856689,2239.617920 
	C3144.639160,2307.429932 3142.485596,2375.643799 3150.709717,2444.425537 
	C3158.017334,2505.540039 3173.027832,2564.846680 3190.143066,2623.755371 
	C3207.985107,2685.166260 3224.668213,2746.872070 3238.155518,2809.423340 
	C3251.016357,2869.070557 3257.085693,2929.156738 3252.037109,2990.145508 
	C3248.110596,3037.581299 3238.773926,3083.760498 3220.175049,3127.789551 
	C3206.565430,3160.007568 3188.534668,3189.406494 3164.077148,3214.603516 
	C3124.963867,3254.899414 3077.202148,3277.680176 3021.660156,3284.588623 
	C3017.030029,3285.164551 3012.402588,3285.762207 3006.454590,3285.480469 
	C3005.079102,3283.331299 3004.841553,3282.086426 3004.422852,3280.875977 
	C3013.488525,3278.721436 3022.673340,3276.971680 3031.601074,3274.347656 
	C3100.257568,3254.169434 3149.213623,3211.137695 3178.969727,3146.249023 
	C3194.935547,3111.432129 3203.772461,3074.615234 3208.052979,3036.669434 
	C3218.836670,2941.072998 3205.537842,2847.960938 3177.817383,2756.597900 
	C3160.027344,2697.965088 3142.944580,2639.146240 3129.883301,2579.297852 
	C3104.999512,2465.282471 3110.789795,2353.033936 3153.940430,2241.834229 
	C3156.939697,2240.170654 3157.898193,2239.894287 3158.856689,2239.617920 
z"/>
<path fill="#343788" opacity="1.000000" stroke="none" 
	d="
M1947.676147,1971.648193 
	C1986.321533,1933.631592 2020.357178,1891.963013 2048.545654,1845.545654 
	C2077.352051,1798.110596 2100.495605,1748.007446 2120.096680,1696.187988 
	C2142.948975,1635.773926 2164.837158,1574.972290 2188.958740,1515.069824 
	C2203.113037,1479.919800 2219.438965,1445.470215 2237.198975,1411.984131 
	C2268.770508,1352.456909 2311.471924,1301.553589 2363.479004,1258.626587 
	C2389.309326,1237.306030 2417.381104,1219.509033 2448.428467,1206.669312 
	C2514.735840,1179.248047 2580.581543,1179.102905 2647.306641,1212.346436 
	C2648.489014,1216.483521 2648.233398,1218.420044 2647.978027,1220.356689 
	C2629.486572,1214.916260 2611.056152,1209.544678 2591.733643,1207.328979 
	C2546.697266,1202.165405 2504.385986,1210.783691 2464.090820,1230.812134 
	C2424.786377,1250.348145 2391.908691,1278.147217 2362.468262,1310.279053 
	C2324.445801,1351.777344 2294.075439,1398.530640 2268.191162,1448.330444 
	C2249.133057,1484.997314 2233.400635,1523.067505 2220.359131,1562.258179 
	C2203.552490,1612.763184 2184.410400,1662.391113 2164.004150,1711.528320 
	C2119.286865,1819.206055 2050.712646,1908.087036 1952.910645,1975.501465 
	C1949.672241,1974.160645 1948.674194,1972.904419 1947.676147,1971.648193 
z"/>
<path fill="#343788" opacity="1.000000" stroke="none" 
	d="
M2016.751221,2747.626465 
	C1978.303467,2661.615723 1921.022949,2589.667969 1850.888306,2527.685303 
	C1822.478638,2502.577881 1792.452393,2479.295898 1763.092407,2455.267822 
	C1720.334229,2420.274902 1677.015503,2385.943848 1634.915649,2350.177490 
	C1611.618530,2330.385254 1589.361328,2309.151855 1568.304932,2286.982666 
	C1516.739136,2232.690918 1478.402100,2170.061523 1454.290771,2098.966797 
	C1443.956543,2068.495361 1437.878052,2037.105225 1437.333984,2005.012695 
	C1436.273804,1942.469849 1456.360596,1887.387817 1498.337524,1840.637817 
	C1501.891968,1836.679321 1505.729492,1832.975220 1511.582764,1829.003540 
	C1514.742188,1830.151245 1515.754395,1831.448486 1516.766602,1832.745605 
	C1514.429199,1835.974609 1512.136230,1839.236694 1509.748047,1842.427612 
	C1465.381958,1901.703369 1453.599731,1967.519287 1470.421753,2039.007080 
	C1482.180908,2088.979736 1505.482422,2133.631348 1534.420898,2175.521240 
	C1579.091553,2240.184326 1633.744263,2295.314697 1696.638306,2342.186035 
	C1741.494873,2375.614990 1784.895264,2410.795410 1827.571411,2446.921875 
	C1904.643555,2512.165283 1963.720703,2590.610107 2001.243042,2684.640869 
	C2009.109009,2704.352783 2014.782471,2724.940186 2020.546143,2746.352539 
	C2018.667725,2747.596436 2017.709473,2747.611572 2016.751221,2747.626465 
z"/>
<path fill="#353788" opacity="1.000000" stroke="none" 
	d="
M2644.406982,1669.380005 
	C2689.935059,1694.848267 2737.871582,1714.409668 2788.323242,1727.688110 
	C2839.379639,1741.125366 2891.297363,1749.522949 2944.003662,1752.348755 
	C2999.235596,1755.310059 3054.529297,1757.119995 3109.760498,1760.093872 
	C3168.997559,1763.283203 3228.202393,1767.534912 3286.354980,1780.069458 
	C3349.407227,1793.660034 3408.685059,1816.963745 3463.093018,1851.960938 
	C3495.297119,1872.675903 3523.945557,1897.435059 3547.206543,1928.022217 
	C3596.287598,1992.561279 3607.419922,2064.325439 3587.320312,2141.861816 
	C3586.189209,2146.225098 3584.024414,2150.320312 3581.147461,2157.531250 
	C3582.578857,2141.017334 3583.999756,2127.829346 3584.823242,2114.604492 
	C3589.832764,2034.142090 3559.724121,1969.010254 3498.331787,1917.725342 
	C3461.014648,1886.552002 3418.178223,1865.198975 3372.760010,1848.906128 
	C3316.669189,1828.784790 3258.766602,1816.366211 3199.365479,1811.698120 
	C3171.490479,1809.507568 3143.475098,1809.147705 3115.534424,1807.739990 
	C3061.628174,1805.024292 3007.550049,1804.045776 2953.865723,1798.950073 
	C2845.527832,1788.666260 2746.477539,1752.109619 2658.206299,1687.684326 
	C2653.919678,1684.555542 2649.345459,1681.820679 2644.451172,1675.955566 
	C2644.133789,1671.799072 2644.270508,1670.589478 2644.406982,1669.380005 
z"/>
<path fill="#76655C" opacity="1.000000" stroke="none" 
	d="
M2648.973877,1221.302002 
	C2648.233398,1218.420044 2648.489014,1216.483521 2648.501709,1213.091553 
	C2663.069580,1215.475342 2674.792969,1224.880615 2687.230469,1234.934692 
	C2687.337646,1236.677856 2686.204834,1237.865112 2686.204834,1237.865112 
	C2674.126465,1232.659180 2662.048096,1227.453247 2648.973877,1221.302002 
z"/>
<path fill="#76655C" opacity="1.000000" stroke="none" 
	d="
M1739.853760,3090.552979 
	C1738.931152,3091.995605 1737.815552,3092.022949 1735.026123,3092.023926 
	C1726.596802,3082.029785 1724.062988,3070.534424 1720.489258,3057.947510 
	C1727.609375,3061.842773 1728.335449,3068.497070 1731.442871,3073.404541 
	C1734.597168,3078.386230 1736.954468,3083.872559 1739.853760,3090.552979 
z"/>
<path fill="#76655C" opacity="1.000000" stroke="none" 
	d="
M1517.977539,1832.163208 
	C1515.754395,1831.448486 1514.742188,1830.151245 1512.660156,1828.224976 
	C1518.121704,1817.401611 1527.959595,1811.063965 1537.510986,1804.590942 
	C1541.115845,1807.153442 1539.507080,1809.490967 1537.843506,1811.347900 
	C1531.723022,1818.179932 1525.421753,1824.849731 1517.977539,1832.163208 
z"/>
<path fill="#76655C" opacity="1.000000" stroke="none" 
	d="
M1946.415527,1972.102051 
	C1948.674194,1972.904419 1949.672241,1974.160645 1951.685303,1976.086182 
	C1945.364990,1981.776733 1938.029663,1986.797852 1929.393066,1991.948120 
	C1928.091919,1992.077271 1928.245728,1992.263672 1928.245728,1992.263672 
	C1929.097534,1990.007080 1929.369751,1987.188110 1930.910522,1985.600098 
	C1935.386230,1980.987671 1940.370361,1976.868530 1946.415527,1972.102051 
z"/>
<path fill="#76655C" opacity="1.000000" stroke="none" 
	d="
M3002.813232,3280.679199 
	C3004.841553,3282.086426 3005.079102,3283.331299 3004.902588,3285.535645 
	C2993.958496,3289.574463 2983.290283,3288.047607 2972.497314,3285.549805 
	C2982.065918,3283.860596 2991.634766,3282.171143 3002.813232,3280.679199 
z"/>
<path fill="#76655C" opacity="1.000000" stroke="none" 
	d="
M2643.687012,1668.479736 
	C2644.270508,1670.589478 2644.133789,1671.799072 2643.736816,1674.816162 
	C2637.609375,1673.224976 2632.206055,1669.375488 2627.187744,1659.623535 
	C2634.593994,1663.357910 2638.780273,1665.468750 2643.687012,1668.479736 
z"/>
<path fill="#76655C" opacity="1.000000" stroke="none" 
	d="
M2016.835083,2748.913574 
	C2017.709473,2747.611572 2018.667725,2747.596436 2021.010986,2747.967529 
	C2024.006470,2753.713867 2025.617065,2759.073975 2027.843994,2766.485352 
	C2020.104980,2761.841309 2019.702393,2755.252930 2016.835083,2748.913574 
z"/>
<path fill="#76655C" opacity="1.000000" stroke="none" 
	d="
M3159.451660,2238.682617 
	C3157.898193,2239.894287 3156.939697,2240.170654 3154.484863,2240.465332 
	C3154.322266,2234.457520 3155.508301,2228.351318 3163.173340,2222.386719 
	C3161.763916,2229.309814 3160.905273,2233.528564 3159.451660,2238.682617 
z"/>
<path fill="#76655C" opacity="1.000000" stroke="none" 
	d="
M2691.792969,1240.206055 
	C2692.410889,1240.100464 2693.211182,1239.702393 2693.608887,1239.950195 
	C2694.435059,1240.465210 2695.048096,1241.322754 2695.748779,1242.039551 
	C2694.748291,1241.823853 2693.747559,1241.608276 2692.362549,1240.709717 
	C2691.978027,1240.026978 2691.792969,1240.206055 2691.792969,1240.206055 
z"/>
<path fill="#76655C" opacity="1.000000" stroke="none" 
	d="
M1928.020142,1991.979980 
	C1927.272339,1992.665527 1926.630127,1993.484253 1925.880493,1994.188721 
	C1925.779419,1994.283569 1925.137939,1993.803467 1924.746826,1993.589600 
	C1925.455200,1992.998779 1926.163574,1992.407959 1927.558838,1992.040405 
	C1928.245728,1992.263672 1928.091919,1992.077271 1928.020142,1991.979980 
z"/>
<path fill="#76655C" opacity="1.000000" stroke="none" 
	d="
M1552.031982,1796.116211 
	C1551.617065,1797.378784 1550.863159,1798.388306 1548.946655,1799.608765 
	C1548.123047,1800.072754 1548.260620,1800.219116 1548.260742,1800.219238 
	C1548.864746,1799.086426 1549.468750,1797.953613 1551.051147,1796.499023 
	C1552.029663,1796.177124 1552.031982,1796.116211 1552.031982,1796.116211 
z"/>
<path fill="#76655C" opacity="1.000000" stroke="none" 
	d="
M1548.067139,1799.989380 
	C1547.555542,1799.333862 1547.435547,1803.182251 1547.521118,1800.109253 
	C1548.260620,1800.219116 1548.123047,1800.072754 1548.067139,1799.989380 
z"/>
<path fill="#76655C" opacity="1.000000" stroke="none" 
	d="
M2622.122070,1658.051025 
	C2622.190430,1658.169067 2622.053467,1657.933105 2622.122070,1658.051025 
z"/>
<path fill="#76655C" opacity="1.000000" stroke="none" 
	d="
M2692.070557,1239.937256 
	C2690.743408,1239.648071 2689.323486,1239.448486 2687.054199,1238.557007 
	C2686.204834,1237.865112 2687.337646,1236.677856 2687.921631,1236.100830 
	C2689.699707,1236.345093 2690.893799,1237.166138 2691.940430,1239.096680 
	C2691.792969,1240.206055 2691.978027,1240.026978 2692.070557,1239.937256 
z"/>
<path fill="#2E338C" opacity="1.000000" stroke="none" 
	d="
M1765.161133,2161.674805 
	C1765.497437,2160.626709 1765.982056,2159.523926 1766.466797,2158.421143 
	C1766.976196,2158.707520 1767.485718,2158.994141 1767.995239,2159.280518 
	C1767.537476,2159.714355 1767.079712,2160.148438 1765.790894,2161.186035 
	C1764.959839,2161.789551 1765.309326,2161.620117 1765.161133,2161.674805 
z"/>
<path fill="#76655C" opacity="1.000000" stroke="none" 
	d="
M1552.040649,1796.225342 
	C1552.051636,1796.273682 1551.867310,1795.729370 1551.949707,1795.922852 
	C1552.031982,1796.116211 1552.029663,1796.177124 1552.040649,1796.225342 
z"/>
<path fill="#323790" opacity="1.000000" stroke="none" 
	d="
M2805.338379,3725.041748 
	C2816.161133,3726.089111 2825.624512,3726.188965 2834.453125,3728.607422 
	C2859.986084,3735.602295 2877.504883,3757.050049 2879.866211,3783.501221 
	C2865.026367,3787.064209 2849.861084,3784.653564 2834.883057,3785.066895 
	C2818.974854,3785.505371 2803.045410,3785.218262 2787.125488,3785.149414 
	C2771.973877,3785.083984 2756.822754,3784.890869 2741.600342,3784.753174 
	C2743.527588,3757.871094 2760.809570,3736.490234 2786.169922,3728.772705 
	C2791.850830,3727.043945 2797.841309,3726.332764 2805.338379,3725.041748 
z"/>
<path fill="#323790" opacity="1.000000" stroke="none" 
	d="
M1538.603027,3727.988281 
	C1566.101318,3737.327393 1581.923462,3754.979980 1587.502808,3783.445068 
	C1571.674438,3786.694092 1556.571411,3784.758789 1541.636597,3785.084229 
	C1525.719727,3785.430908 1509.785522,3785.383301 1493.866089,3785.098877 
	C1478.707153,3784.827881 1463.466187,3786.416992 1447.204346,3783.852539 
	C1447.866821,3778.872314 1447.731201,3774.221436 1449.153931,3770.109619 
	C1459.028564,3741.571533 1486.895752,3723.682373 1519.379761,3725.006836 
	C1525.294189,3725.247803 1531.157715,3726.736328 1538.603027,3727.988281 
z"/>
<path fill="#323790" opacity="1.000000" stroke="none" 
	d="
M2286.932129,3836.657959 
	C2288.663086,3843.200684 2288.788086,3848.505371 2289.207520,3853.786621 
	C2290.371582,3868.456299 2283.740479,3879.765625 2272.808594,3888.246582 
	C2251.175537,3905.029297 2226.908447,3907.986084 2201.349121,3898.895752 
	C2191.568359,3895.416748 2184.514160,3888.329102 2181.323242,3878.114502 
	C2176.408447,3862.380859 2183.155029,3846.557373 2198.637695,3840.421875 
	C2206.481445,3837.313232 2215.304199,3835.559570 2223.748535,3835.304443 
	C2244.299316,3834.682861 2264.887451,3835.294189 2286.932129,3836.657959 
z"/>
</svg>